<?xml version="1.0" encoding="utf-8"?>
<!-- Generator: Adobe Illustrator 17.0.0, SVG Export Plug-In . SVG Version: 6.00 Build 0)  -->
<!DOCTYPE svg PUBLIC "-//W3C//DTD SVG 1.1//EN" "http://www.w3.org/Graphics/SVG/1.1/DTD/svg11.dtd">
<svg version="1.1" id="Layer_1" xmlns="http://www.w3.org/2000/svg" xmlns:xlink="http://www.w3.org/1999/xlink" x="0px" y="0px"
	 width="15.875px" height="8.75px" viewBox="0 0 15.875 8.75" enable-background="new 0 0 15.875 8.75" xml:space="preserve">
<g>
	<defs>
		<path id="SVGID_1_" d="M11.625,7.938c-0.104,0.125-0.234,0.156-0.391,0.093C11.078,7.969,11,7.854,11,7.688v-2.25H1.375
			c-0.104,0-0.193-0.037-0.266-0.11C1.036,5.255,1,5.167,1,5.063v-1c0-0.084,0.036-0.167,0.109-0.25
			c0.073-0.084,0.161-0.125,0.266-0.125H11V1.469c0-0.167,0.078-0.281,0.234-0.344c0.156-0.062,0.286-0.031,0.391,0.094l3.125,3.094
			c0.063,0.083,0.094,0.171,0.094,0.265c0,0.094-0.031,0.182-0.094,0.266L11.625,7.938z"/>
	</defs>
	<clipPath id="SVGID_2_">
		<use xlink:href="#SVGID_1_"  overflow="visible"/>
	</clipPath>
	<g clip-path="url(#SVGID_2_)">
		<defs>
			<rect id="SVGID_3_" x="-866" y="-538.5" width="1440" height="3500"/>
		</defs>
		<clipPath id="SVGID_4_">
			<use xlink:href="#SVGID_3_"  overflow="visible"/>
		</clipPath>
		<rect x="-4" y="-3.906" clip-path="url(#SVGID_4_)" fill="#02A2AF" width="23.844" height="16.969"/>
	</g>
</g>
</svg>
