<?xml version="1.0" encoding="UTF-8"?>
<svg width="48px" height="50px" viewBox="0 0 48 50" version="1.1" xmlns="http://www.w3.org/2000/svg" xmlns:xlink="http://www.w3.org/1999/xlink">
    <!-- Generator: Sketch 47.1 (45422) - http://www.bohemiancoding.com/sketch -->
    <title>bar-chart</title>
    <desc>Created with Sketch.</desc>
    <defs>
        <linearGradient x1="0.00575871005%" y1="50.0037415%" x2="99.9884826%" y2="50.0037415%" id="linearGradient-1">
            <stop stop-color="#003F7D" offset="0%"></stop>
            <stop stop-color="#00A1AE" offset="100%"></stop>
        </linearGradient>
    </defs>
    <g id="Page-1" stroke="none" stroke-width="1" fill="none" fill-rule="evenodd">
        <g id="Investpage" transform="translate(-290.000000, -880.000000)" fill-rule="nonzero" fill="url(#linearGradient-1)">
            <g id="bar-chart" transform="translate(290.000000, 880.000000)">
                <path d="M46.4256836,48.046875 L44.2837891,48.046875 L44.2837891,16.946875 C44.2837891,15.4993164 43.1060547,14.3216797 41.6585938,14.3216797 L36.8710938,14.3216797 C35.4235352,14.3216797 34.2458984,15.4994141 34.2458984,16.946875 L34.2458984,48.046875 L28.8072266,48.046875 L28.8072266,31.0375977 C28.8072266,29.5900391 27.6295898,28.4124023 26.1820313,28.4124023 L21.3945313,28.4124023 C19.9469727,28.4124023 18.7693359,29.5901367 18.7693359,31.0375977 L18.7693359,48.046875 L13.3306641,48.046875 L13.3306641,39.2378906 C13.3306641,37.790332 12.1529297,36.6126953 10.7054688,36.6126953 L5.91787109,36.6126953 C4.4703125,36.6126953 3.29267578,37.7904297 3.29267578,39.2378906 L3.29267578,48.046875 L1.03525391,48.046875 C0.495898438,48.046875 0.0586914062,48.484082 0.0586914062,49.0234375 C0.0586914062,49.562793 0.495898438,50 1.03525391,50 L46.4256836,50 C46.9650391,50 47.4022461,49.562793 47.4022461,49.0234375 C47.4022461,48.484082 46.9650391,48.046875 46.4256836,48.046875 Z M11.3773438,48.046875 L5.24570313,48.046875 L5.24570313,39.2378906 C5.24570313,38.8672852 5.54716797,38.5658203 5.91777344,38.5658203 L10.7052734,38.5658203 C11.0758789,38.5658203 11.3773438,38.8672852 11.3773438,39.2378906 L11.3773438,48.046875 Z M26.8540039,48.046875 L20.7223633,48.046875 L20.7223633,31.0375977 C20.7223633,30.6669922 21.0238281,30.3655273 21.3944336,30.3655273 L26.1819336,30.3655273 C26.5524414,30.3655273 26.8540039,30.6669922 26.8540039,31.0375977 L26.8540039,48.046875 Z M42.3306641,48.046875 L36.1990234,48.046875 L36.1990234,16.946875 C36.1990234,16.5762695 36.5004883,16.2748047 36.8710938,16.2748047 L41.6585938,16.2748047 C42.0291992,16.2748047 42.3306641,16.5762695 42.3306641,16.946875 L42.3306641,48.046875 Z" id="Shape"></path>
                <path d="M44.2814453,1.02695312 C44.2951172,0.760449219 44.2013672,0.489453125 43.9978516,0.2859375 C43.7943359,0.082421875 43.5233398,-0.0114257812 43.2568359,0.00234375 C43.2411133,0.00166015625 43.2255859,0 43.2095703,0 L37.3013672,0 C36.7620117,0 36.3248047,0.437207031 36.3248047,0.9765625 C36.3248047,1.51591797 36.7620117,1.953125 37.3013672,1.953125 L40.9495117,1.953125 L31.2955078,11.6072266 L27.6548828,7.96660156 C27.4717773,7.78349609 27.2233398,7.68056641 26.9643555,7.68056641 C26.7053711,7.68056641 26.4569336,7.78349609 26.2738281,7.96660156 L8.71826172,25.5222656 C8.33691406,25.9036133 8.33691406,26.5219727 8.71826172,26.903418 C8.90898438,27.0939453 9.15888672,27.1892578 9.40878906,27.1892578 C9.65869141,27.1892578 9.90869141,27.0939453 10.0993164,26.9032227 L26.9643555,10.0380859 L30.6049805,13.6787109 C30.9863281,14.0600586 31.6046875,14.0600586 31.9861328,13.6787109 L42.3306641,3.33427734 L42.3306641,6.63603516 C42.3306641,7.17539062 42.7678711,7.61259766 43.3072266,7.61259766 C43.846582,7.61259766 44.2837891,7.17539062 44.2837891,6.63603516 L44.2837891,1.07421875 C44.2837891,1.05830078 44.2821289,1.04277344 44.2814453,1.02695312 Z" id="Shape"></path>
                <circle id="Oval" cx="6.1171875" cy="29.6201172" r="1"></circle>
            </g>
        </g>
    </g>
</svg>