<?xml version="1.0" encoding="UTF-8"?>
<svg width="147px" height="150px" viewBox="0 0 147 150" version="1.1" xmlns="http://www.w3.org/2000/svg" xmlns:xlink="http://www.w3.org/1999/xlink">
    <!-- Generator: Sketch 47.1 (45422) - http://www.bohemiancoding.com/sketch -->
    <title>Group 38</title>
    <desc>Created with Sketch.</desc>
    <defs>
        <linearGradient x1="0.00575871005%" y1="50.0037415%" x2="99.9884826%" y2="50.0037415%" id="linearGradient-1">
            <stop stop-color="#003F7D" offset="0%"></stop>
            <stop stop-color="#00A1AE" offset="100%"></stop>
        </linearGradient>
    </defs>
    <g id="Page-1" stroke="none" stroke-width="1" fill="none" fill-rule="evenodd">
        <g id="Home" transform="translate(-294.000000, -1529.000000)" fill-rule="nonzero" fill="url(#linearGradient-1)">
            <g id="Group-38" transform="translate(294.000000, 1529.000000)">
                <g id="bitcoin">
                    <path d="M101.343898,21.9359087 L101.343898,26.6364606 L96.5179982,26.6364606 L96.5179982,50.1392199 L101.343898,50.1392199 L101.343898,54.8397717 L106.169798,54.8397717 L106.169798,50.1392199 L110.995698,50.1392199 L110.995698,54.8397717 L115.821598,54.8397717 L115.821598,49.7067691 C118.623033,48.7337549 120.647498,46.1484513 120.647498,43.0883921 C120.647498,41.2833802 119.947742,39.6358367 118.799178,38.3878402 C119.947742,37.1398437 120.647498,35.4923003 120.647498,33.6872883 C120.647498,30.6272291 118.623033,28.0419256 115.821598,27.0689113 L115.821598,21.9359087 L110.995698,21.9359087 L110.995698,26.6364606 L106.169798,26.6364606 L106.169798,21.9359087 L101.343898,21.9359087 Z M113.408648,45.438668 L101.343898,45.438668 L101.343898,40.7381161 L113.408648,40.7381161 C114.740596,40.7381161 115.821598,41.79339 115.821598,43.0883921 C115.821598,44.3833941 114.740596,45.438668 113.408648,45.438668 Z M113.408648,31.3370124 C114.740596,31.3370124 115.821598,32.3922863 115.821598,33.6872883 C115.821598,34.9822904 114.740596,36.0375643 113.408648,36.0375643 L101.343898,36.0375643 L101.343898,31.3370124 L113.408648,31.3370124 Z" id="Shape"></path>
                    <path d="M83.356453,36.4932865 C83.356453,42.3664334 85.4054411,48.1026717 89.1228576,52.6461809 L92.7126475,49.7061267 C89.6728125,45.9910306 87.9974225,41.29669 87.9974225,36.4932865 C87.9974225,24.9790412 97.3652194,15.6089238 108.881785,15.6089238 C113.685189,15.6089238 118.379529,17.2843138 122.092305,20.3241488 L125.03468,16.7320385 C120.49117,13.0146219 114.754932,10.9679543 108.881785,10.9679543 C94.8080452,10.9679543 83.356453,22.4195466 83.356453,36.4932865 Z" id="Shape"></path>
                    <path d="M108.283711,58.9731657 C103.480307,58.9731657 98.7859668,57.2977757 95.0731912,54.2579407 L92.1308165,57.8500511 C96.6743256,61.5674677 102.410564,63.6141352 108.283711,63.6141352 C122.357451,63.6141352 133.809043,52.162543 133.809043,38.088803 C133.809043,32.2156561 131.760055,26.4794178 128.042638,21.9359087 L124.452849,24.8759629 C127.492684,28.5910589 129.168074,33.2853996 129.168074,38.088803 C129.168074,49.6030483 119.800277,58.9731657 108.283711,58.9731657 Z" id="Shape"></path>
                    <path d="M106.791391,0 C99.7885747,0 93.2028762,2.72676047 88.2522805,7.6797397 L48.2589991,47.6706375 L99.2999507,98.7115891 L139.290849,58.7206913 C144.241444,53.7677121 146.970588,47.184397 146.970588,40.1815804 L146.970588,0 L106.791391,0 Z M142.203524,40.1815804 C142.203524,45.911591 139.970155,51.298373 135.920534,55.3503772 L99.2999507,91.970961 L54.9996273,47.6706375 L91.620211,11.0500538 C95.6722152,6.99804959 101.058997,4.76706375 106.789008,4.76706375 L142.203524,4.76706375 L142.203524,40.1815804 Z" id="Shape"></path>
                    <path d="M131.201603,93.8376352 C131.201603,96.3624031 130.202989,98.738238 128.388199,100.525433 L126.400573,102.482838 L113.694645,89.9701069 L110.300317,93.3128239 L123.006244,105.825555 L119.199027,109.574882 L106.493099,97.0621515 L103.098771,100.404868 L119.199027,116.260316 L131.782528,103.86815 C134.504712,101.187357 136.002634,97.624787 136.002634,93.8376352 L136.002634,68.0013169 L131.201603,68.0013169 L131.201603,93.8376352 Z" id="Shape"></path>
                    <path d="M49.9084368,40.4774888 L37.3957062,27.7715614 L41.1450337,23.9643441 L53.6577643,36.6702715 L57.0004813,33.2759429 L44.4877507,20.5700155 L46.445155,18.5823888 C48.2323502,16.7675993 50.6081852,15.7689849 53.132953,15.7689849 L78.9692713,15.7689849 L78.9692713,10.9679543 L53.132953,10.9679543 C49.3458012,10.9679543 45.7855949,12.4658759 43.102438,15.1856597 L30.7102722,27.7715614 L46.5657198,43.8718174 L49.9084368,40.4774888 Z" id="Shape"></path>
                    <rect id="Rectangle-path" transform="translate(83.356453, 63.614135) rotate(-135.000000) translate(-83.356453, -63.614135) " x="57.0333626" y="61.4205443" width="52.6461809" height="4.38718174"></rect>
                    <path d="M51.5487464,96.2349543 C51.5487464,101.542312 55.7523123,105.85845 60.9212457,105.85845 C66.0901791,105.85845 70.2937451,101.542312 70.2937451,96.2349543 C70.2937451,93.3479056 69.0237714,90.7832441 67.0555466,89.0173327 L72.3884987,78.063389 L68.1966484,75.9101319 L62.8800981,86.8279875 C62.2474544,86.6908527 61.5937226,86.6114588 60.9212457,86.6114588 C57.6994491,86.6114588 54.8548955,88.2907588 53.1655025,90.8385792 L37.4056449,85.0572643 C37.4314193,84.7733712 37.4899974,84.4966957 37.4899974,84.205585 C37.4899974,78.8982273 33.2864314,74.5820896 28.117498,74.5820896 C22.9485646,74.5820896 18.7449987,78.8982273 18.7449987,84.205585 C18.7449987,87.542532 20.4086173,90.4825099 22.9251334,92.2099273 L10.1269855,129.996582 C9.87392806,129.974929 9.63024308,129.917188 9.37249934,129.917188 C4.20356596,129.917188 0,134.233326 0,139.540684 C0,144.848041 4.20356596,149.164179 9.37249934,149.164179 C14.5414327,149.164179 18.7449987,144.848041 18.7449987,139.540684 C18.7449987,136.203737 17.0813801,133.263759 14.564864,131.536341 L27.365355,93.7496866 C27.6160693,93.7713394 27.8597543,93.8290804 28.117498,93.8290804 C31.3392947,93.8290804 34.1838482,92.1521863 35.8708981,89.60196 L51.6330989,95.3832749 C51.6073245,95.667168 51.5487464,95.9438435 51.5487464,96.2349543 Z M60.9212457,91.4232065 C63.5057124,91.4232065 65.6074954,93.5812754 65.6074954,96.2349543 C65.6074954,98.8886331 63.5057124,101.046702 60.9212457,101.046702 C58.336779,101.046702 56.2349961,98.8886331 56.2349961,96.2349543 C56.2349961,93.5812754 58.336779,91.4232065 60.9212457,91.4232065 Z M9.37249934,144.352431 C6.78803265,144.352431 4.68624967,142.194363 4.68624967,139.540684 C4.68624967,136.887005 6.78803265,134.728936 9.37249934,134.728936 C11.956966,134.728936 14.058749,136.887005 14.058749,139.540684 C14.058749,142.194363 11.956966,144.352431 9.37249934,144.352431 Z M28.117498,89.0173327 C25.5330313,89.0173327 23.4312484,86.8592638 23.4312484,84.205585 C23.4312484,81.5519061 25.5330313,79.3938373 28.117498,79.3938373 C30.7019647,79.3938373 32.8037477,81.5519061 32.8037477,84.205585 C32.8037477,86.8592638 30.7019647,89.0173327 28.117498,89.0173327 Z" id="Shape"></path>
                    <rect id="Rectangle-path" transform="translate(81.162862, 114.066725) rotate(-135.000000) translate(-81.162862, -114.066725) " x="78.9692713" y="94.3244074" width="4.38718174" height="39.4846356"></rect>
                    <rect id="Rectangle-path" transform="translate(61.420544, 132.712248) rotate(-135.000000) translate(-61.420544, -132.712248) " x="59.2269535" y="129.421861" width="4.38718174" height="6.58077261"></rect>
                    <rect id="Rectangle-path" transform="translate(71.291703, 109.679543) rotate(-45.000000) translate(-71.291703, -109.679543) " x="48.2589991" y="107.485953" width="46.0654083" height="4.38718174"></rect>
                    <rect id="Rectangle-path" transform="translate(50.452590, 130.518657) rotate(-135.000000) translate(-50.452590, -130.518657) " x="48.2589991" y="127.22827" width="4.38718174" height="6.58077261"></rect>
                    <rect id="Rectangle-path" transform="translate(39.484636, 60.323749) rotate(45.000000) translate(-39.484636, -60.323749) " x="37.2910448" y="48.2589991" width="4.38718174" height="24.1294996"></rect>
                    <rect id="Rectangle-path" transform="translate(48.258999, 66.904522) rotate(45.000000) translate(-48.258999, -66.904522) " x="46.0654083" y="57.0333626" width="4.38718174" height="19.7423178"></rect>
                </g>
            </g>
        </g>
    </g>
</svg>