<?xml version="1.0" encoding="UTF-8"?>
<svg width="18px" height="21px" viewBox="0 0 18 21" version="1.1" xmlns="http://www.w3.org/2000/svg" xmlns:xlink="http://www.w3.org/1999/xlink">
    <!-- Generator: Sketch 47.1 (45422) - http://www.bohemiancoding.com/sketch -->
    <title>Group 27</title>
    <desc>Created with Sketch.</desc>
    <defs></defs>
    <g id="Page-1" stroke="none" stroke-width="1" fill="none" fill-rule="evenodd">
        <g id="Home" transform="translate(-17.000000, -602.000000)" fill="#FFFFFF">
            <g id="Group-8" transform="translate(15.000000, 394.000000)">
                <g id="Group-27" transform="translate(2.000000, 208.000000)">
                    <path d="M11.8515348,9.99220659 C11.8515348,10.3047058 11.7538788,10.5716321 11.5585668,10.7929859 C11.3632548,11.0143398 11.1223697,11.1250164 10.8359123,11.1250164 C10.5494548,11.1250164 10.3085698,11.0143398 10.1132577,10.7929859 C9.9179457,10.5716321 9.82028968,10.3047058 9.82028968,9.99220659 C9.82028968,9.67970734 9.9179457,9.41929109 10.1132577,9.21095845 C10.3085698,9.00262582 10.5494548,8.8984592 10.8359123,8.8984592 C11.1223697,8.8984592 11.3632548,9.00262582 11.5585668,9.21095845 C11.7538788,9.41929109 11.8515348,9.67970734 11.8515348,9.99220659 Z M7.20310842,8.8984592 C7.48956587,8.8984592 7.73045092,9.00262582 7.92576295,9.21095845 C8.12107498,9.41929109 8.218731,9.67970734 8.218731,9.99220659 C8.218731,10.3047058 8.12107498,10.5716321 7.92576295,10.7929859 C7.73045092,11.0143398 7.48956587,11.1250164 7.20310842,11.1250164 C6.91665097,11.1250164 6.67576593,11.0143398 6.4804539,10.7929859 C6.28514186,10.5716321 6.18748584,10.3047058 6.18748584,9.99220659 C6.18748584,9.67970734 6.28514186,9.41929109 6.4804539,9.21095845 C6.67576593,9.00262582 6.91665097,8.8984592 7.20310842,8.8984592 Z M17.75,2.57034929 L17.75,20.499994 L16.7734375,19.6406211 C15.9661456,18.911456 14.9895831,18.0260418 13.84375,16.9843774 L13.1015625,16.2812541 L13.6484375,18.1562496 L2.28125,18.1562496 C1.734375,18.1562496 1.25911438,17.954427 0.85546875,17.5507823 C0.451823115,17.1471376 0.25,16.6588576 0.25,16.0859421 L0.25,2.57034929 C0.25,1.99743379 0.451823115,1.5091537 0.85546875,1.10550903 C1.25911438,0.701864357 1.734375,0.500041723 2.28125,0.500041723 L15.71875,0.500041723 C16.265625,0.500041723 16.7408856,0.701864357 17.1445312,1.10550903 C17.5481769,1.5091537 17.75,1.99743379 17.75,2.57034929 Z M14.8984026,12.0234517 C14.8984026,10.6953299 14.6640281,9.32814568 14.1952793,7.92189903 C13.934863,7.2187757 13.687468,6.64586021 13.4530935,6.20315313 C12.8541368,5.76044605 12.2030965,5.44794679 11.4999732,5.26565536 C11.1614321,5.18753055 10.8749747,5.14846814 10.6406002,5.14846814 L10.523413,5.30471777 C11.2265363,5.53909221 11.8515348,5.82554966 12.3984085,6.16409072 C12.6588248,6.32034035 12.8541368,6.46356937 12.9843446,6.59377719 C11.8385142,5.94273688 10.6015378,5.60419642 9.27341599,5.57815462 C7.94529415,5.55211281 6.69529713,5.78648725 5.52342493,6.28127794 L4.93748882,6.59377719 L5.21092567,6.35940275 C5.47134192,6.17711132 5.75779937,6.00784109 6.07029862,5.85159146 C6.53904751,5.61721702 7.03383819,5.42190499 7.55467008,5.26565536 L7.47654527,5.14846814 L7.04685879,5.18753055 C6.70831774,5.23961356 6.36977727,5.33075957 6.03123622,5.4609674 C5.53644553,5.64325883 5.08071785,5.89065387 4.66405198,6.20315313 L4.27342791,7.02346367 C3.98697046,7.67450398 3.76561662,8.36460611 3.60936699,9.09377123 C3.34895075,10.1093938 3.21874292,11.085954 3.21874292,12.0234517 L3.37499255,12.2578262 C3.53124218,12.4401176 3.71353361,12.6093879 3.92186625,12.7656375 C4.2083237,13.0000119 4.52082295,13.1692822 4.85936401,13.2734488 C5.30207109,13.4557402 5.77081997,13.5468856 6.26561066,13.5468856 L6.92967157,12.7265751 C6.56508931,12.6224085 6.22654825,12.4661588 5.914049,12.2578262 C5.70571636,12.1015766 5.52342493,11.9453269 5.3671753,11.7890773 L5.17186327,11.5547029 L5.60154974,11.7890773 C6.4869645,12.283868 7.46352467,12.583346 8.53123026,12.6875127 C9.70310246,12.7656375 10.8098705,12.583346 11.8515348,12.140639 C12.2421589,12.0104311 12.6197624,11.8151191 12.9843446,11.5547029 L12.828095,11.7890773 C12.6458036,11.9713687 12.4504915,12.1276184 12.2421589,12.2578262 C11.9296597,12.4661588 11.578098,12.6354297 11.1874739,12.7656375 L11.8515348,13.5468856 C12.3463255,13.5468856 12.8150744,13.4557402 13.2577815,13.2734488 C13.5963225,13.1692822 13.9088218,13.0000119 14.1952793,12.7656375 C14.4036119,12.6093879 14.5859033,12.4401176 14.7421529,12.2578262 L14.8984026,12.0234517 Z" id=""></path>
                </g>
            </g>
        </g>
    </g>
</svg>