<?xml version="1.0" encoding="utf-8"?>
<!-- Generator: Adobe Illustrator 17.0.0, SVG Export Plug-In . SVG Version: 6.00 Build 0)  -->
<!DOCTYPE svg PUBLIC "-//W3C//DTD SVG 1.1//EN" "http://www.w3.org/Graphics/SVG/1.1/DTD/svg11.dtd">
<svg version="1.1" id="Layer_1" xmlns="http://www.w3.org/2000/svg" xmlns:xlink="http://www.w3.org/1999/xlink" x="0px" y="0px"
	 width="18px" height="21px" viewBox="0 0 18 21" enable-background="new 0 0 18 21" xml:space="preserve">
<title>Group 27</title>
<desc>Created with Sketch.</desc>
<g id="Page-1">
	<g id="Home" transform="translate(-17.000000, -602.000000)">
		<g id="Group-8" transform="translate(15.000000, 394.000000)">
			<g id="Group-27" transform="translate(2.000000, 208.000000)">
				<path id="_xF392_" fill="#00A1AE" d="M11.852,9.992c0,0.312-0.098,0.579-0.293,0.801c-0.195,0.221-0.436,0.332-0.723,0.332
					c-0.286,0-0.527-0.111-0.723-0.332C9.918,10.572,9.82,10.305,9.82,9.992s0.098-0.573,0.293-0.781
					c0.195-0.208,0.436-0.312,0.723-0.312c0.286,0,0.527,0.104,0.723,0.312C11.754,9.419,11.852,9.68,11.852,9.992z M7.203,8.898
					c0.286,0,0.527,0.104,0.723,0.312C8.121,9.419,8.219,9.68,8.219,9.992s-0.098,0.579-0.293,0.801
					c-0.195,0.221-0.436,0.332-0.723,0.332s-0.527-0.111-0.723-0.332s-0.293-0.488-0.293-0.801S6.285,9.419,6.48,9.211
					S6.917,8.898,7.203,8.898z M17.75,2.57V20.5l-0.977-0.859c-0.807-0.729-1.784-1.615-2.93-2.656l-0.742-0.703l0.547,1.875H2.281
					c-0.547,0-1.022-0.202-1.426-0.605c-0.404-0.404-0.605-0.892-0.605-1.465V2.57c0-0.573,0.202-1.061,0.605-1.465
					S1.734,0.5,2.281,0.5h13.438c0.547,0,1.022,0.202,1.426,0.605S17.75,1.997,17.75,2.57z M14.898,12.023
					c0-1.328-0.234-2.695-0.703-4.102c-0.26-0.703-0.508-1.276-0.742-1.719c-0.599-0.443-1.25-0.755-1.953-0.937
					c-0.339-0.078-0.625-0.117-0.859-0.117l-0.117,0.156c0.703,0.234,1.328,0.521,1.875,0.859c0.26,0.156,0.456,0.299,0.586,0.43
					c-1.146-0.651-2.383-0.99-3.711-1.016s-2.578,0.208-3.75,0.703L4.937,6.594l0.273-0.234c0.26-0.182,0.547-0.352,0.859-0.508
					c0.469-0.234,0.964-0.43,1.484-0.586L7.477,5.148l-0.43,0.039C6.708,5.24,6.37,5.331,6.031,5.461
					c-0.495,0.182-0.951,0.43-1.367,0.742l-0.391,0.82c-0.286,0.651-0.508,1.341-0.664,2.07c-0.26,1.016-0.391,1.992-0.391,2.93
					l0.156,0.234c0.156,0.182,0.339,0.352,0.547,0.508C4.208,13,4.521,13.169,4.859,13.273c0.443,0.182,0.911,0.273,1.406,0.273
					l0.664-0.82c-0.365-0.104-0.703-0.26-1.016-0.469c-0.208-0.156-0.391-0.312-0.547-0.469l-0.195-0.234l0.43,0.234
					c0.885,0.495,1.862,0.794,2.93,0.898c1.172,0.078,2.279-0.104,3.32-0.547c0.391-0.13,0.768-0.326,1.133-0.586l-0.156,0.234
					c-0.182,0.182-0.378,0.339-0.586,0.469c-0.312,0.208-0.664,0.378-1.055,0.508l0.664,0.781c0.495,0,0.964-0.091,1.406-0.273
					c0.339-0.104,0.651-0.273,0.937-0.508c0.208-0.156,0.391-0.326,0.547-0.508L14.898,12.023z"/>
			</g>
		</g>
	</g>
</g>
</svg>
