<?xml version="1.0" encoding="utf-8"?>
<!-- Generator: Adobe Illustrator 17.0.0, SVG Export Plug-In . SVG Version: 6.00 Build 0)  -->
<!DOCTYPE svg PUBLIC "-//W3C//DTD SVG 1.1//EN" "http://www.w3.org/Graphics/SVG/1.1/DTD/svg11.dtd">
<svg version="1.1" id="Capa_1" xmlns="http://www.w3.org/2000/svg" xmlns:xlink="http://www.w3.org/1999/xlink" x="0px" y="0px"
	 width="13.521px" height="15.8px" viewBox="299.24 388.16 13.521 15.8" enable-background="new 299.24 388.16 13.521 15.8"
	 xml:space="preserve">
<g>
	<g>
		<g>
			<polygon fill="#FFFFFF" points="305.335,396.913 303.34,395.01 302.488,395.904 305.406,398.684 309.851,393.733 
				308.935,392.906 			"/>
			<path fill="#FFFFFF" d="M311.073,390.105c-1.496-0.268-2.875-0.87-3.563-1.333c-0.45-0.302-0.972-0.463-1.511-0.463
				c-0.54,0-1.061,0.16-1.511,0.463c-0.688,0.463-2.067,1.064-3.563,1.333c-0.885,0.157-1.53,0.925-1.53,1.823v3.723
				c0,1.231,0.345,2.428,1.024,3.563c0.531,0.888,1.268,1.737,2.187,2.523c1.545,1.32,3.075,2.014,3.143,2.039
				c0.111,0.04,0.37,0.049,0.503,0c0.068-0.022,1.595-0.719,3.143-2.039c0.919-0.787,1.656-1.635,2.187-2.523
				c0.679-1.135,1.024-2.335,1.024-3.563v-3.723C312.603,391.031,311.958,390.263,311.073,390.105z M311.369,395.651
				c0,1.835-0.925,3.56-2.755,5.127c-1.061,0.913-2.082,1.746-2.616,1.746c-1.101,0-5.37-2.977-5.37-6.876v-3.72
				c0-0.299,0.216-0.555,0.512-0.608c1.718-0.308,3.264-1.006,4.035-1.524c0.244-0.163,0.531-0.253,0.824-0.253
				c0.293,0,0.577,0.086,0.824,0.253c0.768,0.518,2.313,1.215,4.035,1.524c0.296,0.052,0.512,0.308,0.512,0.608V395.651z"/>
		</g>
	</g>
</g>
</svg>
