<?xml version="1.0" encoding="UTF-8"?>
<svg width="107px" height="144px" viewBox="0 0 107 144" version="1.1" xmlns="http://www.w3.org/2000/svg" xmlns:xlink="http://www.w3.org/1999/xlink">
    <!-- Generator: Sketch 47.1 (45422) - http://www.bohemiancoding.com/sketch -->
    <title>Group 41</title>
    <desc>Created with Sketch.</desc>
    <defs>
        <linearGradient x1="0.00529100529%" y1="50.0059895%" x2="99.9929453%" y2="50.0059895%" id="linearGradient-1">
            <stop stop-color="#003F7D" offset="0%"></stop>
            <stop stop-color="#00A1AE" offset="100%"></stop>
        </linearGradient>
        <linearGradient x1="0.00575871005%" y1="50.0019792%" x2="99.9884826%" y2="50.0019792%" id="linearGradient-2">
            <stop stop-color="#003F7D" offset="0%"></stop>
            <stop stop-color="#004B83" offset="18.91%"></stop>
            <stop stop-color="#006C93" offset="53.28%"></stop>
            <stop stop-color="#00A0AD" offset="98.96%"></stop>
            <stop stop-color="#00A1AE" offset="100%"></stop>
        </linearGradient>
        <linearGradient x1="0.00587889477%" y1="49.9967583%" x2="99.9941211%" y2="49.9967583%" id="linearGradient-3">
            <stop stop-color="#003F7D" offset="0%"></stop>
            <stop stop-color="#00A1AE" offset="100%"></stop>
        </linearGradient>
        <linearGradient x1="0.00863806507%" y1="49.9915756%" x2="99.9942413%" y2="49.9915756%" id="linearGradient-4">
            <stop stop-color="#003F7D" offset="0%"></stop>
            <stop stop-color="#00A1AE" offset="100%"></stop>
        </linearGradient>
        <linearGradient x1="0.00575871005%" y1="50.0037415%" x2="99.9884826%" y2="50.0037415%" id="linearGradient-5">
            <stop stop-color="#003F7D" offset="0%"></stop>
            <stop stop-color="#00A1AE" offset="100%"></stop>
        </linearGradient>
    </defs>
    <g id="Page-1" stroke="none" stroke-width="1" fill="none" fill-rule="evenodd">
        <g id="Home" transform="translate(-667.000000, -3236.000000)">
            <g id="Group-16" transform="translate(0.000000, 3236.000000)">
                <g id="Group-41" transform="translate(667.000000, 0.000000)">
                    <g id="HEXA-logo---edited" transform="translate(16.000000, 0.000000)" fill-rule="nonzero">
                        <g id="logo" transform="translate(0.000000, 0.148480)">
                            <g id="XMLID_2_" transform="translate(0.115808, 0.148480)">
                                <g id="Group">
                                    <polygon id="Shape" fill="url(#linearGradient-1)" points="73.4702328 24.9343323 73.4702328 74.6089049 36.7868742 99.4397215 0.10351565 74.6089049 0.10351565 54.3457164 8.35888876 45.1845813 8.35888876 54.3586558 8.35888876 69.0190598 36.7868742 88.2729708 65.2148597 69.0190598 65.2148597 30.5241774 51.4602176 21.2077688 59.7155908 15.6179237"></polygon>
                                    <polygon id="Shape" fill="url(#linearGradient-2)" points="59.7155908 15.6179237 51.4602176 21.2077688 23.0322322 40.4616798 14.7768591 34.8718347 43.2048445 15.6179237"></polygon>
                                    <polygon id="Shape" fill="url(#linearGradient-3)" points="58.7968894 34.8718347 58.7968894 64.6714025 36.7868742 79.5776561 14.7768591 64.6714025 23.0322322 59.0815574 36.7868742 68.3979659 50.5415162 59.0815574 50.5415162 40.4616798"></polygon>
                                    <polygon id="Shape" fill="url(#linearGradient-4)" points="45.0422473 5.68042131 8.35888876 30.5241774 8.35888876 40.3452247 0.10351565 40.3452247 0.10351565 24.9343323 36.7868742 0.10351565"></polygon>
                                    <rect id="Rectangle-path" fill="#003F7D" x="8.35888876" y="45.1845813" width="28.4279855" height="9.17407451"></rect>
                                </g>
                            </g>
                        </g>
                    </g>
                    <path d="M23.5995133,143.990732 L17.4551635,143.990732 L17.4551635,131.936735 L6.1446003,131.936735 L6.1446003,143.990732 L0,143.990732 L0,116.047091 L6.1446003,116.047091 L6.1446003,126.770522 L17.4551635,126.770522 L17.4551635,116.047091 L23.5995133,116.047091 L23.5995133,143.990732 Z M78.5003936,143.990732 L71.1817791,143.990732 L65.0762542,134.324089 L58.8535032,143.990732 L51.9654691,143.990732 L61.7107636,129.353754 L52.7091534,116.047091 L59.8321406,116.047091 L65.3112073,124.9703 L70.9861519,116.047091 L77.717634,116.047091 L68.7553496,129.392829 L78.5003936,143.990732 Z M106.968296,143.990732 L100.656623,143.990732 C98.9207758,139.010878 97.1849281,134.030523 95.4493309,129.050419 L93.3485293,122.935125 L93.3177199,122.935125 C93.3049453,122.898554 93.2924211,122.862234 93.2796465,122.825664 C92.3633794,125.434946 91.4471123,128.043727 90.5308452,130.65326 L89.6308595,133.189151 L89.6403779,133.189151 C89.1043441,134.715344 88.5683103,136.242038 88.0322765,137.768232 L88.0260145,137.768232 L85.8342876,143.990732 L79.6508624,143.990732 L90.2177414,116.047091 L96.5188936,116.047091 L106.968296,143.990732 Z M28.7802548,144 L28.7802548,138.79396 L50.0713161,138.79396 L50.0713161,144 L28.7802548,144 Z M28.7802548,132.60302 L28.7802548,127.39698 L50.0713161,127.39698 L50.0713161,132.60302 L28.7802548,132.60302 Z M28.7802548,121.20604 L28.7802548,116 L50.0713161,116 L50.0713161,121.20604 L28.7802548,121.20604 Z" id="Combined-Shape" fill="url(#linearGradient-5)"></path>
                </g>
            </g>
        </g>
    </g>
</svg>