<?xml version="1.0" encoding="UTF-8"?>
<svg width="1440px" height="1024px" viewBox="0 0 1440 1024" version="1.1" xmlns="http://www.w3.org/2000/svg" xmlns:xlink="http://www.w3.org/1999/xlink">
    <!-- Generator: Sketch 47.1 (45422) - http://www.bohemiancoding.com/sketch -->
    <title>Group 29</title>
    <desc>Created with Sketch.</desc>
    <defs>
        <polygon id="path-1" points="0.114290777 0 1523.87703 0 1523.87703 1524 0.114290777 1524"></polygon>
    </defs>
    <g id="Page-1" stroke="none" stroke-width="1" fill="none" fill-rule="evenodd" opacity="0.300000012">
        <g id="Home">
            <g id="Group-9">
                <g transform="translate(-172.000000, -334.000000)" id="Group-29">
                    <g transform="translate(122.000000, 0.000000)">
                        <g id="833">
                            <g id="Group-12">
                                <mask id="mask-2" fill="white">
                                    <use xlink:href="#path-1"></use>
                                </mask>
                                <g id="Clip-2"></g>
                                <path d="M-107.637149,190.280925 L-167.647426,86.33079 L-107.637149,-17.61744 L12.3834057,-17.61744 L72.3936829,86.33079 L12.3834057,190.280925 L-107.637149,190.280925 Z M71.5860281,86.33079 L11.5757509,-17.61744 L71.5860281,-121.567575 L191.606583,-121.567575 L251.61686,-17.61744 L191.606583,86.33079 L71.5860281,86.33079 Z M71.5860281,294.229155 L11.5757509,190.280925 L71.5860281,86.33079 L191.606583,86.33079 L251.61686,190.280925 L191.606583,294.229155 L71.5860281,294.229155 Z M71.5860281,502.12752 L11.5757509,398.17929 L71.5860281,294.229155 L191.606583,294.229155 L251.61686,398.17929 L191.606583,502.12752 L71.5860281,502.12752 Z M71.5860281,710.025885 L11.5757509,606.07575 L71.5860281,502.12752 L191.606583,502.12752 L251.61686,606.07575 L191.606583,710.025885 L71.5860281,710.025885 Z M71.5860281,917.92425 L11.5757509,813.974115 L71.5860281,710.025885 L191.606583,710.025885 L251.61686,813.974115 L191.606583,917.92425 L71.5860281,917.92425 Z M71.5860281,1125.82071 L11.5757509,1021.87248 L71.5860281,917.92425 L191.606583,917.92425 L251.61686,1021.87248 L191.606583,1125.82071 L71.5860281,1125.82071 Z M71.5860281,1333.71907 L11.5757509,1229.77084 L71.5860281,1125.82071 L191.606583,1125.82071 L251.61686,1229.77084 L191.606583,1333.71907 L71.5860281,1333.71907 Z M71.5860281,1541.61744 L11.5757509,1437.66921 L71.5860281,1333.71907 L191.606583,1333.71907 L251.61686,1437.66921 L191.606583,1541.61744 L71.5860281,1541.61744 Z M-107.637149,398.17929 L-167.647426,294.229155 L-107.637149,190.280925 L12.3834057,190.280925 L72.3936829,294.229155 L12.3834057,398.17929 L-107.637149,398.17929 Z M-107.637149,606.07575 L-167.647426,502.12752 L-107.637149,398.17929 L12.3834057,398.17929 L72.3936829,502.12752 L12.3834057,606.07575 L-107.637149,606.07575 Z M-107.637149,813.974115 L-167.647426,710.025885 L-107.637149,606.07575 L12.3834057,606.07575 L72.3936829,710.025885 L12.3834057,813.974115 L-107.637149,813.974115 Z M-107.637149,1021.87248 L-167.647426,917.92425 L-107.637149,813.974115 L12.3834057,813.974115 L72.3936829,917.92425 L12.3834057,1021.87248 L-107.637149,1021.87248 Z M-107.637149,1229.77084 L-167.647426,1125.82071 L-107.637149,1021.87248 L12.3834057,1021.87248 L72.3936829,1125.82071 L12.3834057,1229.77084 L-107.637149,1229.77084 Z M-107.637149,1437.66921 L-167.647426,1333.71907 L-107.637149,1229.77084 L12.3834057,1229.77084 L72.3936829,1333.71907 L12.3834057,1437.66921 L-107.637149,1437.66921 Z M-107.637149,1645.56567 L-167.647426,1541.61744 L-107.637149,1437.66921 L12.3834057,1437.66921 L72.3936829,1541.61744 L12.3834057,1645.56567 L-107.637149,1645.56567 Z" id="Stroke-1" stroke="#FFFFFF" stroke-width="0.75" mask="url(#mask-2)"></path>
                                <path d="M252.340701,190.280925 L192.330424,86.33079 L252.340701,-17.61744 L372.359351,-17.61744 L432.369628,86.33079 L372.359351,190.280925 L252.340701,190.280925 Z M431.563878,86.33079 L371.553601,-17.61744 L431.563878,-121.567575 L551.582528,-121.567575 L611.592805,-17.61744 L551.582528,86.33079 L431.563878,86.33079 Z M431.563878,294.229155 L371.553601,190.280925 L431.563878,86.33079 L551.582528,86.33079 L611.592805,190.280925 L551.582528,294.229155 L431.563878,294.229155 Z M431.563878,502.12752 L371.553601,398.17929 L431.563878,294.229155 L551.582528,294.229155 L611.592805,398.17929 L551.582528,502.12752 L431.563878,502.12752 Z M431.563878,710.025885 L371.553601,606.07575 L431.563878,502.12752 L551.582528,502.12752 L611.592805,606.07575 L551.582528,710.025885 L431.563878,710.025885 Z M431.563878,917.92425 L371.553601,813.974115 L431.563878,710.025885 L551.582528,710.025885 L611.592805,813.974115 L551.582528,917.92425 L431.563878,917.92425 Z M431.563878,1125.82071 L371.553601,1021.87248 L431.563878,917.92425 L551.582528,917.92425 L611.592805,1021.87248 L551.582528,1125.82071 L431.563878,1125.82071 Z M431.563878,1333.71907 L371.553601,1229.77084 L431.563878,1125.82071 L551.582528,1125.82071 L611.592805,1229.77084 L551.582528,1333.71907 L431.563878,1333.71907 Z M431.563878,1541.61744 L371.553601,1437.66921 L431.563878,1333.71907 L551.582528,1333.71907 L611.592805,1437.66921 L551.582528,1541.61744 L431.563878,1541.61744 Z M252.340701,398.17929 L192.330424,294.229155 L252.340701,190.280925 L372.359351,190.280925 L432.369628,294.229155 L372.359351,398.17929 L252.340701,398.17929 Z M252.340701,606.07575 L192.330424,502.12752 L252.340701,398.17929 L372.359351,398.17929 L432.369628,502.12752 L372.359351,606.07575 L252.340701,606.07575 Z M252.340701,813.974115 L192.330424,710.025885 L252.340701,606.07575 L372.359351,606.07575 L432.369628,710.025885 L372.359351,813.974115 L252.340701,813.974115 Z M252.340701,1021.87248 L192.330424,917.92425 L252.340701,813.974115 L372.359351,813.974115 L432.369628,917.92425 L372.359351,1021.87248 L252.340701,1021.87248 Z M252.340701,1229.77084 L192.330424,1125.82071 L252.340701,1021.87248 L372.359351,1021.87248 L432.369628,1125.82071 L372.359351,1229.77084 L252.340701,1229.77084 Z M252.340701,1437.66921 L192.330424,1333.71907 L252.340701,1229.77084 L372.359351,1229.77084 L432.369628,1333.71907 L372.359351,1437.66921 L252.340701,1437.66921 Z M252.340701,1645.56567 L192.330424,1541.61744 L252.340701,1437.66921 L372.359351,1437.66921 L432.369628,1541.61744 L372.359351,1645.56567 L252.340701,1645.56567 Z" id="Stroke-3" stroke="#FFFFFF" stroke-width="0.75" mask="url(#mask-2)"></path>
                                <path d="M612.316647,190.280925 L552.30637,86.33079 L612.316647,-17.61744 L732.337201,-17.61744 L792.347479,86.33079 L732.337201,190.280925 L612.316647,190.280925 Z M791.539824,86.33079 L731.529546,-17.61744 L791.539824,-121.567575 L911.560378,-121.567575 L971.570655,-17.61744 L911.560378,86.33079 L791.539824,86.33079 Z M791.539824,294.229155 L731.529546,190.280925 L791.539824,86.33079 L911.560378,86.33079 L971.570655,190.280925 L911.560378,294.229155 L791.539824,294.229155 Z M791.539824,502.12752 L731.529546,398.17929 L791.539824,294.229155 L911.560378,294.229155 L971.570655,398.17929 L911.560378,502.12752 L791.539824,502.12752 Z M791.539824,710.025885 L731.529546,606.07575 L791.539824,502.12752 L911.560378,502.12752 L971.570655,606.07575 L911.560378,710.025885 L791.539824,710.025885 Z M791.539824,917.92425 L731.529546,813.974115 L791.539824,710.025885 L911.560378,710.025885 L971.570655,813.974115 L911.560378,917.92425 L791.539824,917.92425 Z M791.539824,1125.82071 L731.529546,1021.87248 L791.539824,917.92425 L911.560378,917.92425 L971.570655,1021.87248 L911.560378,1125.82071 L791.539824,1125.82071 Z M791.539824,1333.71907 L731.529546,1229.77084 L791.539824,1125.82071 L911.560378,1125.82071 L971.570655,1229.77084 L911.560378,1333.71907 L791.539824,1333.71907 Z M791.539824,1541.61744 L731.529546,1437.66921 L791.539824,1333.71907 L911.560378,1333.71907 L971.570655,1437.66921 L911.560378,1541.61744 L791.539824,1541.61744 Z M612.316647,398.17929 L552.30637,294.229155 L612.316647,190.280925 L732.337201,190.280925 L792.347479,294.229155 L732.337201,398.17929 L612.316647,398.17929 Z M612.316647,606.07575 L552.30637,502.12752 L612.316647,398.17929 L732.337201,398.17929 L792.347479,502.12752 L732.337201,606.07575 L612.316647,606.07575 Z M612.316647,813.974115 L552.30637,710.025885 L612.316647,606.07575 L732.337201,606.07575 L792.347479,710.025885 L732.337201,813.974115 L612.316647,813.974115 Z M612.316647,1021.87248 L552.30637,917.92425 L612.316647,813.974115 L732.337201,813.974115 L792.347479,917.92425 L732.337201,1021.87248 L612.316647,1021.87248 Z M612.316647,1229.77084 L552.30637,1125.82071 L612.316647,1021.87248 L732.337201,1021.87248 L792.347479,1125.82071 L732.337201,1229.77084 L612.316647,1229.77084 Z M612.316647,1437.66921 L552.30637,1333.71907 L612.316647,1229.77084 L732.337201,1229.77084 L792.347479,1333.71907 L732.337201,1437.66921 L612.316647,1437.66921 Z M612.316647,1645.56567 L552.30637,1541.61744 L612.316647,1437.66921 L732.337201,1437.66921 L792.347479,1541.61744 L732.337201,1645.56567 L612.316647,1645.56567 Z" id="Stroke-4" stroke="#FFFFFF" stroke-width="0.75" mask="url(#mask-2)"></path>
                                <path d="M972.294497,190.280925 L912.28422,86.33079 L972.294497,-17.61744 L1092.31315,-17.61744 L1152.32342,86.33079 L1092.31315,190.280925 L972.294497,190.280925 Z M1151.51767,86.33079 L1091.5074,-17.61744 L1151.51767,-121.567575 L1271.53632,-121.567575 L1331.5466,-17.61744 L1271.53632,86.33079 L1151.51767,86.33079 Z M1151.51767,294.229155 L1091.5074,190.280925 L1151.51767,86.33079 L1271.53632,86.33079 L1331.5466,190.280925 L1271.53632,294.229155 L1151.51767,294.229155 Z M1151.51767,502.12752 L1091.5074,398.17929 L1151.51767,294.229155 L1271.53632,294.229155 L1331.5466,398.17929 L1271.53632,502.12752 L1151.51767,502.12752 Z M1151.51767,710.025885 L1091.5074,606.07575 L1151.51767,502.12752 L1271.53632,502.12752 L1331.5466,606.07575 L1271.53632,710.025885 L1151.51767,710.025885 Z M1151.51767,917.92425 L1091.5074,813.974115 L1151.51767,710.025885 L1271.53632,710.025885 L1331.5466,813.974115 L1271.53632,917.92425 L1151.51767,917.92425 Z M1151.51767,1125.82071 L1091.5074,1021.87248 L1151.51767,917.92425 L1271.53632,917.92425 L1331.5466,1021.87248 L1271.53632,1125.82071 L1151.51767,1125.82071 Z M1151.51767,1333.71907 L1091.5074,1229.77084 L1151.51767,1125.82071 L1271.53632,1125.82071 L1331.5466,1229.77084 L1271.53632,1333.71907 L1151.51767,1333.71907 Z M1151.51767,1541.61744 L1091.5074,1437.66921 L1151.51767,1333.71907 L1271.53632,1333.71907 L1331.5466,1437.66921 L1271.53632,1541.61744 L1151.51767,1541.61744 Z M972.294497,398.17929 L912.28422,294.229155 L972.294497,190.280925 L1092.31315,190.280925 L1152.32342,294.229155 L1092.31315,398.17929 L972.294497,398.17929 Z M972.294497,606.07575 L912.28422,502.12752 L972.294497,398.17929 L1092.31315,398.17929 L1152.32342,502.12752 L1092.31315,606.07575 L972.294497,606.07575 Z M972.294497,813.974115 L912.28422,710.025885 L972.294497,606.07575 L1092.31315,606.07575 L1152.32342,710.025885 L1092.31315,813.974115 L972.294497,813.974115 Z M972.294497,1021.87248 L912.28422,917.92425 L972.294497,813.974115 L1092.31315,813.974115 L1152.32342,917.92425 L1092.31315,1021.87248 L972.294497,1021.87248 Z M972.294497,1229.77084 L912.28422,1125.82071 L972.294497,1021.87248 L1092.31315,1021.87248 L1152.32342,1125.82071 L1092.31315,1229.77084 L972.294497,1229.77084 Z M972.294497,1437.66921 L912.28422,1333.71907 L972.294497,1229.77084 L1092.31315,1229.77084 L1152.32342,1333.71907 L1092.31315,1437.66921 L972.294497,1437.66921 Z M972.294497,1645.56567 L912.28422,1541.61744 L972.294497,1437.66921 L1092.31315,1437.66921 L1152.32342,1541.61744 L1092.31315,1645.56567 L972.294497,1645.56567 Z" id="Stroke-5" stroke="#FFFFFF" stroke-width="0.75" mask="url(#mask-2)"></path>
                                <path d="M1332.27044,190.280925 L1272.26017,86.33079 L1332.27044,-17.61744 L1452.291,-17.61744 L1512.30127,86.33079 L1452.291,190.280925 L1332.27044,190.280925 Z M1511.49362,86.33079 L1451.48334,-17.61744 L1511.49362,-121.567575 L1631.51417,-121.567575 L1691.52445,-17.61744 L1631.51417,86.33079 L1511.49362,86.33079 Z M1511.49362,294.229155 L1451.48334,190.280925 L1511.49362,86.33079 L1631.51417,86.33079 L1691.52445,190.280925 L1631.51417,294.229155 L1511.49362,294.229155 Z M1511.49362,502.12752 L1451.48334,398.17929 L1511.49362,294.229155 L1631.51417,294.229155 L1691.52445,398.17929 L1631.51417,502.12752 L1511.49362,502.12752 Z M1511.49362,710.025885 L1451.48334,606.07575 L1511.49362,502.12752 L1631.51417,502.12752 L1691.52445,606.07575 L1631.51417,710.025885 L1511.49362,710.025885 Z M1511.49362,917.92425 L1451.48334,813.974115 L1511.49362,710.025885 L1631.51417,710.025885 L1691.52445,813.974115 L1631.51417,917.92425 L1511.49362,917.92425 Z M1511.49362,1125.82071 L1451.48334,1021.87248 L1511.49362,917.92425 L1631.51417,917.92425 L1691.52445,1021.87248 L1631.51417,1125.82071 L1511.49362,1125.82071 Z M1511.49362,1333.71907 L1451.48334,1229.77084 L1511.49362,1125.82071 L1631.51417,1125.82071 L1691.52445,1229.77084 L1631.51417,1333.71907 L1511.49362,1333.71907 Z M1511.49362,1541.61744 L1451.48334,1437.66921 L1511.49362,1333.71907 L1631.51417,1333.71907 L1691.52445,1437.66921 L1631.51417,1541.61744 L1511.49362,1541.61744 Z M1332.27044,398.17929 L1272.26017,294.229155 L1332.27044,190.280925 L1452.291,190.280925 L1512.30127,294.229155 L1452.291,398.17929 L1332.27044,398.17929 Z M1332.27044,606.07575 L1272.26017,502.12752 L1332.27044,398.17929 L1452.291,398.17929 L1512.30127,502.12752 L1452.291,606.07575 L1332.27044,606.07575 Z M1332.27044,813.974115 L1272.26017,710.025885 L1332.27044,606.07575 L1452.291,606.07575 L1512.30127,710.025885 L1452.291,813.974115 L1332.27044,813.974115 Z M1332.27044,1021.87248 L1272.26017,917.92425 L1332.27044,813.974115 L1452.291,813.974115 L1512.30127,917.92425 L1452.291,1021.87248 L1332.27044,1021.87248 Z M1332.27044,1229.77084 L1272.26017,1125.82071 L1332.27044,1021.87248 L1452.291,1021.87248 L1512.30127,1125.82071 L1452.291,1229.77084 L1332.27044,1229.77084 Z M1332.27044,1437.66921 L1272.26017,1333.71907 L1332.27044,1229.77084 L1452.291,1229.77084 L1512.30127,1333.71907 L1452.291,1437.66921 L1332.27044,1437.66921 Z M1332.27044,1645.56567 L1272.26017,1541.61744 L1332.27044,1437.66921 L1452.291,1437.66921 L1512.30127,1541.61744 L1452.291,1645.56567 L1332.27044,1645.56567 Z" id="Stroke-6" stroke="#FFFFFF" stroke-width="0.75" mask="url(#mask-2)"></path>
                                <path d="M-168.455081,86.33079 L-228.463453,-17.61744 L-168.455081,-121.567575 L-48.4345264,-121.567575 L11.5757509,-17.61744 L-48.4345264,86.33079 L-168.455081,86.33079 Z M-168.455081,294.229155 L-228.463453,190.280925 L-168.455081,86.33079 L-48.4345264,86.33079 L11.5757509,190.280925 L-48.4345264,294.229155 L-168.455081,294.229155 Z M-168.455081,502.12752 L-228.463453,398.17929 L-168.455081,294.229155 L-48.4345264,294.229155 L11.5757509,398.17929 L-48.4345264,502.12752 L-168.455081,502.12752 Z M-168.455081,710.025885 L-228.463453,606.07575 L-168.455081,502.12752 L-48.4345264,502.12752 L11.5757509,606.07575 L-48.4345264,710.025885 L-168.455081,710.025885 Z M-168.455081,917.92425 L-228.463453,813.974115 L-168.455081,710.025885 L-48.4345264,710.025885 L11.5757509,813.974115 L-48.4345264,917.92425 L-168.455081,917.92425 Z M-168.455081,1125.82071 L-228.463453,1021.87248 L-168.455081,917.92425 L-48.4345264,917.92425 L11.5757509,1021.87248 L-48.4345264,1125.82071 L-168.455081,1125.82071 Z M-168.455081,1333.71908 L-228.463453,1229.77085 L-168.455081,1125.82071 L-48.4345264,1125.82071 L11.5757509,1229.77085 L-48.4345264,1333.71908 L-168.455081,1333.71908 Z M-168.455081,1541.61744 L-228.463453,1437.66921 L-168.455081,1333.71908 L-48.4345264,1333.71908 L11.5757509,1437.66921 L-48.4345264,1541.61744 L-168.455081,1541.61744 Z M12.2995924,190.280925 L-47.7106848,86.33079 L12.2995924,-17.61744 L132.320147,-17.61744 L192.330424,86.33079 L132.320147,190.280925 L12.2995924,190.280925 Z M191.522769,86.33079 L131.512492,-17.61744 L191.522769,-121.567575 L311.543324,-121.567575 L371.553601,-17.61744 L311.543324,86.33079 L191.522769,86.33079 Z M191.522769,294.229155 L131.512492,190.280925 L191.522769,86.33079 L311.543324,86.33079 L371.553601,190.280925 L311.543324,294.229155 L191.522769,294.229155 Z M191.522769,502.12752 L131.512492,398.17929 L191.522769,294.229155 L311.543324,294.229155 L371.553601,398.17929 L311.543324,502.12752 L191.522769,502.12752 Z M191.522769,710.025885 L131.512492,606.07575 L191.522769,502.12752 L311.543324,502.12752 L371.553601,606.07575 L311.543324,710.025885 L191.522769,710.025885 Z M191.522769,917.92425 L131.512492,813.974115 L191.522769,710.025885 L311.543324,710.025885 L371.553601,813.974115 L311.543324,917.92425 L191.522769,917.92425 Z M191.522769,1125.82071 L131.512492,1021.87248 L191.522769,917.92425 L311.543324,917.92425 L371.553601,1021.87248 L311.543324,1125.82071 L191.522769,1125.82071 Z M191.522769,1333.71908 L131.512492,1229.77085 L191.522769,1125.82071 L311.543324,1125.82071 L371.553601,1229.77085 L311.543324,1333.71908 L191.522769,1333.71908 Z" id="Stroke-7" stroke="#FFFFFF" stroke-width="0.75" mask="url(#mask-2)"></path>
                                <path d="M191.522769,1541.61744 L131.512492,1437.66921 L191.522769,1333.71907 L311.543324,1333.71907 L371.553601,1437.66921 L311.543324,1541.61744 L191.522769,1541.61744 Z M12.2995924,398.17929 L-47.7106848,294.229155 L12.2995924,190.280925 L132.320147,190.280925 L192.330424,294.229155 L132.320147,398.17929 L12.2995924,398.17929 Z M12.2995924,606.07575 L-47.7106848,502.12752 L12.2995924,398.17929 L132.320147,398.17929 L192.330424,502.12752 L132.320147,606.07575 L12.2995924,606.07575 Z M12.2995924,813.974115 L-47.7106848,710.025885 L12.2995924,606.07575 L132.320147,606.07575 L192.330424,710.025885 L132.320147,813.974115 L12.2995924,813.974115 Z M12.2995924,1021.87248 L-47.7106848,917.92425 L12.2995924,813.974115 L132.320147,813.974115 L192.330424,917.92425 L132.320147,1021.87248 L12.2995924,1021.87248 Z M12.2995924,1229.77084 L-47.7106848,1125.82071 L12.2995924,1021.87248 L132.320147,1021.87248 L192.330424,1125.82071 L132.320147,1229.77084 L12.2995924,1229.77084 Z M12.2995924,1437.66921 L-47.7106848,1333.71907 L12.2995924,1229.77084 L132.320147,1229.77084 L192.330424,1333.71907 L132.320147,1437.66921 L12.2995924,1437.66921 Z M12.2995924,1645.56567 L-47.7106848,1541.61744 L12.2995924,1437.66921 L132.320147,1437.66921 L192.330424,1541.61744 L132.320147,1645.56567 L12.2995924,1645.56567 Z M372.277443,190.280925 L312.267165,86.33079 L372.277443,-17.61744 L492.296092,-17.61744 L552.30637,86.33079 L492.296092,190.280925 L372.277443,190.280925 Z M551.498715,86.33079 L491.490342,-17.61744 L551.498715,-121.567575 L671.519269,-121.567575 L731.529546,-17.61744 L671.519269,86.33079 L551.498715,86.33079 Z M551.498715,294.229155 L491.490342,190.280925 L551.498715,86.33079 L671.519269,86.33079 L731.529546,190.280925 L671.519269,294.229155 L551.498715,294.229155 Z M551.498715,502.12752 L491.490342,398.17929 L551.498715,294.229155 L671.519269,294.229155 L731.529546,398.17929 L671.519269,502.12752 L551.498715,502.12752 Z M551.498715,710.025885 L491.490342,606.07575 L551.498715,502.12752 L671.519269,502.12752 L731.529546,606.07575 L671.519269,710.025885 L551.498715,710.025885 Z M551.498715,917.92425 L491.490342,813.974115 L551.498715,710.025885 L671.519269,710.025885 L731.529546,813.974115 L671.519269,917.92425 L551.498715,917.92425 Z M551.498715,1125.82071 L491.490342,1021.87248 L551.498715,917.92425 L671.519269,917.92425 L731.529546,1021.87248 L671.519269,1125.82071 L551.498715,1125.82071 Z M551.498715,1333.71907 L491.490342,1229.77084 L551.498715,1125.82071 L671.519269,1125.82071 L731.529546,1229.77084 L671.519269,1333.71907 L551.498715,1333.71907 Z" id="Stroke-8" stroke="#FFFFFF" stroke-width="0.75" mask="url(#mask-2)"></path>
                                <path d="M551.498715,1541.61744 L491.490342,1437.66921 L551.498715,1333.71907 L671.519269,1333.71907 L731.529546,1437.66921 L671.519269,1541.61744 L551.498715,1541.61744 Z M372.277443,398.17929 L312.267165,294.229155 L372.277443,190.280925 L492.296092,190.280925 L552.30637,294.229155 L492.296092,398.17929 L372.277443,398.17929 Z M372.277443,606.07575 L312.267165,502.12752 L372.277443,398.17929 L492.296092,398.17929 L552.30637,502.12752 L492.296092,606.07575 L372.277443,606.07575 Z M372.277443,813.974115 L312.267165,710.025885 L372.277443,606.07575 L492.296092,606.07575 L552.30637,710.025885 L492.296092,813.974115 L372.277443,813.974115 Z M372.277443,1021.87248 L312.267165,917.92425 L372.277443,813.974115 L492.296092,813.974115 L552.30637,917.92425 L492.296092,1021.87248 L372.277443,1021.87248 Z M372.277443,1229.77084 L312.267165,1125.82071 L372.277443,1021.87248 L492.296092,1021.87248 L552.30637,1125.82071 L492.296092,1229.77084 L372.277443,1229.77084 Z M372.277443,1437.66921 L312.267165,1333.71907 L372.277443,1229.77084 L492.296092,1229.77084 L552.30637,1333.71907 L492.296092,1437.66921 L372.277443,1437.66921 Z M372.277443,1645.56567 L312.267165,1541.61744 L372.277443,1437.66921 L492.296092,1437.66921 L552.30637,1541.61744 L492.296092,1645.56567 L372.277443,1645.56567 Z M732.253388,190.280925 L672.243111,86.33079 L732.253388,-17.61744 L852.273943,-17.61744 L912.28422,86.33079 L852.273943,190.280925 L732.253388,190.280925 Z M911.476565,86.33079 L851.466288,-17.61744 L911.476565,-121.567575 L1031.49712,-121.567575 L1091.5074,-17.61744 L1031.49712,86.33079 L911.476565,86.33079 Z M911.476565,294.229155 L851.466288,190.280925 L911.476565,86.33079 L1031.49712,86.33079 L1091.5074,190.280925 L1031.49712,294.229155 L911.476565,294.229155 Z M911.476565,502.12752 L851.466288,398.17929 L911.476565,294.229155 L1031.49712,294.229155 L1091.5074,398.17929 L1031.49712,502.12752 L911.476565,502.12752 Z M911.476565,710.025885 L851.466288,606.07575 L911.476565,502.12752 L1031.49712,502.12752 L1091.5074,606.07575 L1031.49712,710.025885 L911.476565,710.025885 Z M911.476565,917.92425 L851.466288,813.974115 L911.476565,710.025885 L1031.49712,710.025885 L1091.5074,813.974115 L1031.49712,917.92425 L911.476565,917.92425 Z M911.476565,1125.82071 L851.466288,1021.87248 L911.476565,917.92425 L1031.49712,917.92425 L1091.5074,1021.87248 L1031.49712,1125.82071 L911.476565,1125.82071 Z M911.476565,1333.71907 L851.466288,1229.77084 L911.476565,1125.82071 L1031.49712,1125.82071 L1091.5074,1229.77084 L1031.49712,1333.71907 L911.476565,1333.71907 Z" id="Stroke-9" stroke="#FFFFFF" stroke-width="0.75" mask="url(#mask-2)"></path>
                                <path d="M911.476565,1541.61744 L851.466288,1437.66921 L911.476565,1333.71907 L1031.49712,1333.71907 L1091.5074,1437.66921 L1031.49712,1541.61744 L911.476565,1541.61744 Z M732.253388,398.17929 L672.243111,294.229155 L732.253388,190.280925 L852.273943,190.280925 L912.28422,294.229155 L852.273943,398.17929 L732.253388,398.17929 Z M732.253388,606.07575 L672.243111,502.12752 L732.253388,398.17929 L852.273943,398.17929 L912.28422,502.12752 L852.273943,606.07575 L732.253388,606.07575 Z M732.253388,813.974115 L672.243111,710.025885 L732.253388,606.07575 L852.273943,606.07575 L912.28422,710.025885 L852.273943,813.974115 L732.253388,813.974115 Z M732.253388,1021.87248 L672.243111,917.92425 L732.253388,813.974115 L852.273943,813.974115 L912.28422,917.92425 L852.273943,1021.87248 L732.253388,1021.87248 Z M732.253388,1229.77084 L672.243111,1125.82071 L732.253388,1021.87248 L852.273943,1021.87248 L912.28422,1125.82071 L852.273943,1229.77084 L732.253388,1229.77084 Z M732.253388,1437.66921 L672.243111,1333.71907 L732.253388,1229.77084 L852.273943,1229.77084 L912.28422,1333.71907 L852.273943,1437.66921 L732.253388,1437.66921 Z M732.253388,1645.56567 L672.243111,1541.61744 L732.253388,1437.66921 L852.273943,1437.66921 L912.28422,1541.61744 L852.273943,1645.56567 L732.253388,1645.56567 Z M1092.23124,190.280925 L1032.22096,86.33079 L1092.23124,-17.61744 L1212.24989,-17.61744 L1272.26017,86.33079 L1212.24989,190.280925 L1092.23124,190.280925 Z M1271.45251,86.33079 L1211.44223,-17.61744 L1271.45251,-121.567575 L1391.47306,-121.567575 L1451.48334,-17.61744 L1391.47306,86.33079 L1271.45251,86.33079 Z M1271.45251,294.229155 L1211.44223,190.280925 L1271.45251,86.33079 L1391.47306,86.33079 L1451.48334,190.280925 L1391.47306,294.229155 L1271.45251,294.229155 Z M1271.45251,502.12752 L1211.44223,398.17929 L1271.45251,294.229155 L1391.47306,294.229155 L1451.48334,398.17929 L1391.47306,502.12752 L1271.45251,502.12752 Z M1271.45251,710.025885 L1211.44223,606.07575 L1271.45251,502.12752 L1391.47306,502.12752 L1451.48334,606.07575 L1391.47306,710.025885 L1271.45251,710.025885 Z M1271.45251,917.92425 L1211.44223,813.974115 L1271.45251,710.025885 L1391.47306,710.025885 L1451.48334,813.974115 L1391.47306,917.92425 L1271.45251,917.92425 Z M1271.45251,1125.82071 L1211.44223,1021.87248 L1271.45251,917.92425 L1391.47306,917.92425 L1451.48334,1021.87248 L1391.47306,1125.82071 L1271.45251,1125.82071 Z M1271.45251,1333.71907 L1211.44223,1229.77084 L1271.45251,1125.82071 L1391.47306,1125.82071 L1451.48334,1229.77084 L1391.47306,1333.71907 L1271.45251,1333.71907 Z" id="Stroke-10" stroke="#FFFFFF" stroke-width="0.75" mask="url(#mask-2)"></path>
                                <path d="M1271.45251,1541.61744 L1211.44223,1437.66921 L1271.45251,1333.71907 L1391.47306,1333.71907 L1451.48334,1437.66921 L1391.47306,1541.61744 L1271.45251,1541.61744 Z M1092.23124,398.17929 L1032.22096,294.229155 L1092.23124,190.280925 L1212.24989,190.280925 L1272.26017,294.229155 L1212.24989,398.17929 L1092.23124,398.17929 Z M1092.23124,606.07575 L1032.22096,502.12752 L1092.23124,398.17929 L1212.24989,398.17929 L1272.26017,502.12752 L1212.24989,606.07575 L1092.23124,606.07575 Z M1092.23124,813.974115 L1032.22096,710.025885 L1092.23124,606.07575 L1212.24989,606.07575 L1272.26017,710.025885 L1212.24989,813.974115 L1092.23124,813.974115 Z M1092.23124,1021.87248 L1032.22096,917.92425 L1092.23124,813.974115 L1212.24989,813.974115 L1272.26017,917.92425 L1212.24989,1021.87248 L1092.23124,1021.87248 Z M1092.23124,1229.77085 L1032.22096,1125.82071 L1092.23124,1021.87248 L1212.24989,1021.87248 L1272.26017,1125.82071 L1212.24989,1229.77085 L1092.23124,1229.77085 Z M1092.23124,1437.66921 L1032.22096,1333.71908 L1092.23124,1229.77085 L1212.24989,1229.77085 L1272.26017,1333.71908 L1212.24989,1437.66921 L1092.23124,1437.66921 Z M1092.23124,1645.56567 L1032.22096,1541.61744 L1092.23124,1437.66921 L1212.24989,1437.66921 L1272.26017,1541.61744 L1212.24989,1645.56567 L1092.23124,1645.56567 Z" id="Stroke-11" stroke="#FFFFFF" stroke-width="0.75" mask="url(#mask-2)"></path>
                            </g>
                            <path d="M253.5,391 C248.813121,391 245,394.811598 245,399.499018 C245,404.186439 248.813121,408 253.5,408 C258.186879,408 262,404.186439 262,399.499018 C262,394.811598 258.186879,391 253.5,391 Z M253.5,392.963729 C257.108917,392.963729 260.036498,395.889685 260.036498,399.499018 C260.036498,403.110315 257.108917,406.036271 253.5,406.036271 C249.891083,406.036271 246.963502,403.110315 246.963502,399.499018 C246.963502,395.889685 249.891083,392.963729 253.5,392.963729 L253.5,392.963729 Z" id="Fill-41" fill="#FFFFFF"></path>
                            <path d="M373.500982,391 C368.813561,391 365,394.811598 365,399.499018 C365,404.186439 368.813561,408 373.500982,408 C378.188402,408 382,404.186439 382,399.499018 C382,394.811598 378.188402,391 373.500982,391 Z M373.500982,392.963729 C377.110315,392.963729 380.036271,395.889685 380.036271,399.499018 C380.036271,403.110315 377.110315,406.036271 373.500982,406.036271 C369.889685,406.036271 366.963729,403.110315 366.963729,399.499018 C366.963729,395.889685 369.889685,392.963729 373.500982,392.963729 L373.500982,392.963729 Z" id="Fill-42" fill="#FFFFFF"></path>
                            <path d="M612.5,391 C607.812038,391 604,394.811598 604,399.499018 C604,404.186439 607.812038,408 612.5,408 C617.185998,408 621,404.186439 621,399.499018 C621,394.811598 617.185998,391 612.5,391 Z M612.5,392.963729 C616.10975,392.963729 619.036044,395.889685 619.036044,399.499018 C619.036044,403.110315 616.10975,406.036271 612.5,406.036271 C608.89025,406.036271 605.963956,403.110315 605.963956,399.499018 C605.963956,395.889685 608.89025,392.963729 612.5,392.963729 L612.5,392.963729 Z" id="Fill-43" fill="#FFFFFF"></path>
                            <path d="M732.500982,391 C727.81268,391 724,394.811598 724,399.499018 C724,404.186439 727.81268,408 732.500982,408 C737.18732,408 741,404.186439 741,399.499018 C741,394.811598 737.18732,391 732.500982,391 Z M732.500982,392.963729 C736.109481,392.963729 739.036725,395.889685 739.036725,399.499018 C739.036725,403.110315 736.109481,406.036271 732.500982,406.036271 C728.890519,406.036271 725.963275,403.110315 725.963275,399.499018 C725.963275,395.889685 728.890519,392.963729 732.500982,392.963729 L732.500982,392.963729 Z" id="Fill-44" fill="#FFFFFF"></path>
                            <path d="M972.5,391 C967.812038,391 964,394.811598 964,399.499018 C964,404.186439 967.812038,408 972.5,408 C977.185998,408 981,404.186439 981,399.499018 C981,394.811598 977.185998,391 972.5,391 Z M972.5,392.963729 C976.10975,392.963729 979.036044,395.889685 979.036044,399.499018 C979.036044,403.110315 976.10975,406.036271 972.5,406.036271 C968.89025,406.036271 965.963956,403.110315 965.963956,399.499018 C965.963956,395.889685 968.89025,392.963729 972.5,392.963729 L972.5,392.963729 Z" id="Fill-45" fill="#FFFFFF"></path>
                            <path d="M1092.49804,391 C1087.81116,391 1084,394.811598 1084,399.499018 C1084,404.186439 1087.81116,408 1092.49804,408 C1097.18492,408 1101,404.186439 1101,399.499018 C1101,394.811598 1097.18492,391 1092.49804,391 Z M1092.49804,392.963729 C1096.10892,392.963729 1099.0365,395.889685 1099.0365,399.499018 C1099.0365,403.110315 1096.10892,406.036271 1092.49804,406.036271 C1088.88912,406.036271 1085.9635,403.110315 1085.9635,399.499018 C1085.9635,395.889685 1088.88912,392.963729 1092.49804,392.963729 L1092.49804,392.963729 Z" id="Fill-46" fill="#FFFFFF"></path>
                            <path d="M1331.5,391 C1326.81204,391 1323,394.811598 1323,399.499018 C1323,404.186439 1326.81204,408 1331.5,408 C1336.18796,408 1340,404.186439 1340,399.499018 C1340,394.811598 1336.18796,391 1331.5,391 Z M1331.5,392.963729 C1335.10975,392.963729 1338.03604,395.889685 1338.03604,399.499018 C1338.03604,403.110315 1335.10975,406.036271 1331.5,406.036271 C1327.89025,406.036271 1324.96396,403.110315 1324.96396,399.499018 C1324.96396,395.889685 1327.89025,392.963729 1331.5,392.963729 L1331.5,392.963729 Z" id="Fill-47" fill="#FFFFFF"></path>
                            <path d="M1451.49804,391 C1446.81116,391 1443,394.811598 1443,399.499018 C1443,404.186439 1446.81116,408 1451.49804,408 C1456.18492,408 1460,404.186439 1460,399.499018 C1460,394.811598 1456.18492,391 1451.49804,391 Z M1451.49804,392.963729 C1455.11088,392.963729 1458.0365,395.889685 1458.0365,399.499018 C1458.0365,403.110315 1455.11088,406.036271 1451.49804,406.036271 C1447.88912,406.036271 1444.9635,403.110315 1444.9635,399.499018 C1444.9635,395.889685 1447.88912,392.963729 1451.49804,392.963729 L1451.49804,392.963729 Z" id="Fill-48" fill="#FFFFFF"></path>
                            <path d="M72.5009819,493 C67.8135613,493 64,496.813561 64,501.500982 C64,506.188402 67.8135613,510 72.5009819,510 C77.1884024,510 81,506.188402 81,501.500982 C81,496.813561 77.1884024,493 72.5009819,493 Z M72.5009819,494.963729 C76.1103154,494.963729 79.0362712,497.889685 79.0362712,501.500982 C79.0362712,505.110315 76.1103154,508.036271 72.5009819,508.036271 C68.8916484,508.036271 65.9637288,505.110315 65.9637288,501.500982 C65.9637288,497.889685 68.8916484,494.963729 72.5009819,494.963729 L72.5009819,494.963729 Z" id="Fill-49" fill="#FFFFFF"></path>
                            <path d="M192.500982,493 C187.813561,493 184,496.813561 184,501.500982 C184,506.188402 187.813561,510 192.500982,510 C197.186439,510 201,506.188402 201,501.500982 C201,496.813561 197.186439,493 192.500982,493 Z M192.500982,494.963729 C196.110315,494.963729 199.036271,497.889685 199.036271,501.500982 C199.036271,505.110315 196.110315,508.036271 192.500982,508.036271 C188.889685,508.036271 185.963729,505.110315 185.963729,501.500982 C185.963729,497.889685 188.889685,494.963729 192.500982,494.963729 L192.500982,494.963729 Z" id="Fill-50" fill="#FFFFFF"></path>
                            <path d="M431.500982,493 C426.813561,493 423,496.813561 423,501.500982 C423,506.188402 426.813561,510 431.500982,510 C436.186439,510 440,506.188402 440,501.500982 C440,496.813561 436.186439,493 431.500982,493 Z M431.500982,494.963729 C435.110315,494.963729 438.036271,497.889685 438.036271,501.500982 C438.036271,505.110315 435.110315,508.036271 431.500982,508.036271 C427.889685,508.036271 424.963729,505.110315 424.963729,501.500982 C424.963729,497.889685 427.889685,494.963729 431.500982,494.963729 L431.500982,494.963729 Z" id="Fill-51" fill="#FFFFFF"></path>
                            <path d="M552.499018,493 C547.813561,493 544,496.813561 544,501.500982 C544,506.188402 547.813561,510 552.499018,510 C557.186439,510 561,506.188402 561,501.500982 C561,496.813561 557.186439,493 552.499018,493 Z M552.499018,494.963729 C556.110315,494.963729 559.036271,497.889685 559.036271,501.500982 C559.036271,505.110315 556.110315,508.036271 552.499018,508.036271 C548.889685,508.036271 545.963729,505.110315 545.963729,501.500982 C545.963729,497.889685 548.889685,494.963729 552.499018,494.963729 L552.499018,494.963729 Z" id="Fill-52" fill="#FFFFFF"></path>
                            <path d="M791.5,493 C786.812038,493 783,496.813561 783,501.500982 C783,506.188402 786.812038,510 791.5,510 C796.187962,510 800,506.188402 800,501.500982 C800,496.813561 796.187962,493 791.5,493 Z M791.5,494.963729 C795.10975,494.963729 798.036044,497.889685 798.036044,501.500982 C798.036044,505.110315 795.10975,508.036271 791.5,508.036271 C787.89025,508.036271 784.963956,505.110315 784.963956,501.500982 C784.963956,497.889685 787.89025,494.963729 791.5,494.963729 L791.5,494.963729 Z" id="Fill-53" fill="#FFFFFF"></path>
                            <path d="M911.5,493 C906.813121,493 903,496.813561 903,501.500982 C903,506.188402 906.813121,510 911.5,510 C916.186879,510 920,506.188402 920,501.500982 C920,496.813561 916.186879,493 911.5,493 Z M911.5,494.963729 C915.11088,494.963729 918.036498,497.889685 918.036498,501.500982 C918.036498,505.110315 915.11088,508.036271 911.5,508.036271 C907.88912,508.036271 904.963502,505.110315 904.963502,501.500982 C904.963502,497.889685 907.88912,494.963729 911.5,494.963729 L911.5,494.963729 Z" id="Fill-54" fill="#FFFFFF"></path>
                            <path d="M1150.5,493 C1145.814,493 1142,496.813561 1142,501.500982 C1142,506.188402 1145.814,510 1150.5,510 C1155.18796,510 1159,506.188402 1159,501.500982 C1159,496.813561 1155.18796,493 1150.5,493 Z M1150.5,494.963729 C1154.10975,494.963729 1157.03604,497.889685 1157.03604,501.500982 C1157.03604,505.110315 1154.10975,508.036271 1150.5,508.036271 C1146.89025,508.036271 1143.96396,505.110315 1143.96396,501.500982 C1143.96396,497.889685 1146.89025,494.963729 1150.5,494.963729 L1150.5,494.963729 Z" id="Fill-55" fill="#FFFFFF"></path>
                            <path d="M1270.49804,493 C1265.81116,493 1262,496.813561 1262,501.500982 C1262,506.188402 1265.81116,510 1270.49804,510 C1275.18688,510 1279,506.188402 1279,501.500982 C1279,496.813561 1275.18688,493 1270.49804,493 Z M1270.49804,494.963729 C1274.11088,494.963729 1277.0365,497.889685 1277.0365,501.500982 C1277.0365,505.110315 1274.11088,508.036271 1270.49804,508.036271 C1266.88912,508.036271 1263.9635,505.110315 1263.9635,501.500982 C1263.9635,497.889685 1266.88912,494.963729 1270.49804,494.963729 L1270.49804,494.963729 Z" id="Fill-56" fill="#FFFFFF"></path>
                            <path d="M253.5,597 C248.813121,597 245,600.811598 245,605.499018 C245,610.186439 248.813121,614 253.5,614 C258.186879,614 262,610.186439 262,605.499018 C262,600.811598 258.186879,597 253.5,597 Z M253.5,598.963729 C257.108917,598.963729 260.036498,601.889685 260.036498,605.499018 C260.036498,609.110315 257.108917,612.036271 253.5,612.036271 C249.891083,612.036271 246.963502,609.110315 246.963502,605.499018 C246.963502,601.889685 249.891083,598.963729 253.5,598.963729 L253.5,598.963729 Z" id="Fill-59" fill="#FFFFFF"></path>
                            <path d="M373.500982,597 C368.813561,597 365,600.811598 365,605.499018 C365,610.186439 368.813561,614 373.500982,614 C378.188402,614 382,610.186439 382,605.499018 C382,600.811598 378.188402,597 373.500982,597 Z M373.500982,598.963729 C377.110315,598.963729 380.036271,601.889685 380.036271,605.499018 C380.036271,609.110315 377.110315,612.036271 373.500982,612.036271 C369.889685,612.036271 366.963729,609.110315 366.963729,605.499018 C366.963729,601.889685 369.889685,598.963729 373.500982,598.963729 L373.500982,598.963729 Z" id="Fill-60" fill="#FFFFFF"></path>
                            <path d="M612.5,597 C607.812038,597 604,600.811598 604,605.499018 C604,610.186439 607.812038,614 612.5,614 C617.185998,614 621,610.186439 621,605.499018 C621,600.811598 617.185998,597 612.5,597 Z M612.5,598.963729 C616.10975,598.963729 619.036044,601.889685 619.036044,605.499018 C619.036044,609.110315 616.10975,612.036271 612.5,612.036271 C608.89025,612.036271 605.963956,609.110315 605.963956,605.499018 C605.963956,601.889685 608.89025,598.963729 612.5,598.963729 L612.5,598.963729 Z" id="Fill-61" fill="#FFFFFF"></path>
                            <path d="M732.500982,597 C727.81268,597 724,600.811598 724,605.499018 C724,610.186439 727.81268,614 732.500982,614 C737.18732,614 741,610.186439 741,605.499018 C741,600.811598 737.18732,597 732.500982,597 Z M732.500982,598.963729 C736.109481,598.963729 739.036725,601.889685 739.036725,605.499018 C739.036725,609.110315 736.109481,612.036271 732.500982,612.036271 C728.890519,612.036271 725.963275,609.110315 725.963275,605.499018 C725.963275,601.889685 728.890519,598.963729 732.500982,598.963729 L732.500982,598.963729 Z" id="Fill-62" fill="#FFFFFF"></path>
                            <path d="M972.5,597 C967.812038,597 964,600.811598 964,605.499018 C964,610.186439 967.812038,614 972.5,614 C977.185998,614 981,610.186439 981,605.499018 C981,600.811598 977.185998,597 972.5,597 Z M972.5,598.963729 C976.10975,598.963729 979.036044,601.889685 979.036044,605.499018 C979.036044,609.110315 976.10975,612.036271 972.5,612.036271 C968.89025,612.036271 965.963956,609.110315 965.963956,605.499018 C965.963956,601.889685 968.89025,598.963729 972.5,598.963729 L972.5,598.963729 Z" id="Fill-63" fill="#FFFFFF"></path>
                            <path d="M1092.49804,597 C1087.81116,597 1084,600.811598 1084,605.499018 C1084,610.186439 1087.81116,614 1092.49804,614 C1097.18492,614 1101,610.186439 1101,605.499018 C1101,600.811598 1097.18492,597 1092.49804,597 Z M1092.49804,598.963729 C1096.10892,598.963729 1099.0365,601.889685 1099.0365,605.499018 C1099.0365,609.110315 1096.10892,612.036271 1092.49804,612.036271 C1088.88912,612.036271 1085.9635,609.110315 1085.9635,605.499018 C1085.9635,601.889685 1088.88912,598.963729 1092.49804,598.963729 L1092.49804,598.963729 Z" id="Fill-64" fill="#FFFFFF"></path>
                            <path d="M1331.5,597 C1326.81204,597 1323,600.811598 1323,605.499018 C1323,610.186439 1326.81204,614 1331.5,614 C1336.18796,614 1340,610.186439 1340,605.499018 C1340,600.811598 1336.18796,597 1331.5,597 Z M1331.5,598.963729 C1335.10975,598.963729 1338.03604,601.889685 1338.03604,605.499018 C1338.03604,609.110315 1335.10975,612.036271 1331.5,612.036271 C1327.89025,612.036271 1324.96396,609.110315 1324.96396,605.499018 C1324.96396,601.889685 1327.89025,598.963729 1331.5,598.963729 L1331.5,598.963729 Z" id="Fill-65" fill="#FFFFFF"></path>
                            <path d="M1451.49804,597 C1446.81116,597 1443,600.811598 1443,605.499018 C1443,610.186439 1446.81116,614 1451.49804,614 C1456.18492,614 1460,610.186439 1460,605.499018 C1460,600.811598 1456.18492,597 1451.49804,597 Z M1451.49804,598.963729 C1455.11088,598.963729 1458.0365,601.889685 1458.0365,605.499018 C1458.0365,609.110315 1455.11088,612.036271 1451.49804,612.036271 C1447.88912,612.036271 1444.9635,609.110315 1444.9635,605.499018 C1444.9635,601.889685 1447.88912,598.963729 1451.49804,598.963729 L1451.49804,598.963729 Z" id="Fill-66" fill="#FFFFFF"></path>
                            <path d="M72.5009819,700 C67.8135613,700 64,703.813561 64,708.500982 C64,713.188402 67.8135613,717 72.5009819,717 C77.1884024,717 81,713.188402 81,708.500982 C81,703.813561 77.1884024,700 72.5009819,700 Z M72.5009819,701.963729 C76.1103154,701.963729 79.0362712,704.889685 79.0362712,708.500982 C79.0362712,712.110315 76.1103154,715.036271 72.5009819,715.036271 C68.8916484,715.036271 65.9637288,712.110315 65.9637288,708.500982 C65.9637288,704.889685 68.8916484,701.963729 72.5009819,701.963729 L72.5009819,701.963729 Z" id="Fill-67" fill="#FFFFFF"></path>
                            <path d="M192.500982,700 C187.813561,700 184,703.813561 184,708.500982 C184,713.188402 187.813561,717 192.500982,717 C197.186439,717 201,713.188402 201,708.500982 C201,703.813561 197.186439,700 192.500982,700 Z M192.500982,701.963729 C196.110315,701.963729 199.036271,704.889685 199.036271,708.500982 C199.036271,712.110315 196.110315,715.036271 192.500982,715.036271 C188.889685,715.036271 185.963729,712.110315 185.963729,708.500982 C185.963729,704.889685 188.889685,701.963729 192.500982,701.963729 L192.500982,701.963729 Z" id="Fill-68" fill="#FFFFFF"></path>
                            <path d="M431.500982,700 C426.813561,700 423,703.813561 423,708.500982 C423,713.188402 426.813561,717 431.500982,717 C436.186439,717 440,713.188402 440,708.500982 C440,703.813561 436.186439,700 431.500982,700 Z M431.500982,701.963729 C435.110315,701.963729 438.036271,704.889685 438.036271,708.500982 C438.036271,712.110315 435.110315,715.036271 431.500982,715.036271 C427.889685,715.036271 424.963729,712.110315 424.963729,708.500982 C424.963729,704.889685 427.889685,701.963729 431.500982,701.963729 L431.500982,701.963729 Z" id="Fill-69" fill="#FFFFFF"></path>
                            <path d="M552.499018,700 C547.813561,700 544,703.813561 544,708.500982 C544,713.188402 547.813561,717 552.499018,717 C557.186439,717 561,713.188402 561,708.500982 C561,703.813561 557.186439,700 552.499018,700 Z M552.499018,701.963729 C556.110315,701.963729 559.036271,704.889685 559.036271,708.500982 C559.036271,712.110315 556.110315,715.036271 552.499018,715.036271 C548.889685,715.036271 545.963729,712.110315 545.963729,708.500982 C545.963729,704.889685 548.889685,701.963729 552.499018,701.963729 L552.499018,701.963729 Z" id="Fill-70" fill="#FFFFFF"></path>
                            <path d="M791.5,700 C786.812038,700 783,703.813561 783,708.500982 C783,713.188402 786.812038,717 791.5,717 C796.187962,717 800,713.188402 800,708.500982 C800,703.813561 796.187962,700 791.5,700 Z M791.5,701.963729 C795.10975,701.963729 798.036044,704.889685 798.036044,708.500982 C798.036044,712.110315 795.10975,715.036271 791.5,715.036271 C787.89025,715.036271 784.963956,712.110315 784.963956,708.500982 C784.963956,704.889685 787.89025,701.963729 791.5,701.963729 L791.5,701.963729 Z" id="Fill-71" fill="#FFFFFF"></path>
                            <path d="M911.5,700 C906.813121,700 903,703.813561 903,708.500982 C903,713.188402 906.813121,717 911.5,717 C916.186879,717 920,713.188402 920,708.500982 C920,703.813561 916.186879,700 911.5,700 Z M911.5,701.963729 C915.11088,701.963729 918.036498,704.889685 918.036498,708.500982 C918.036498,712.110315 915.11088,715.036271 911.5,715.036271 C907.88912,715.036271 904.963502,712.110315 904.963502,708.500982 C904.963502,704.889685 907.88912,701.963729 911.5,701.963729 L911.5,701.963729 Z" id="Fill-72" fill="#FFFFFF"></path>
                            <path d="M1150.5,700 C1145.814,700 1142,703.813561 1142,708.500982 C1142,713.188402 1145.814,717 1150.5,717 C1155.18796,717 1159,713.188402 1159,708.500982 C1159,703.813561 1155.18796,700 1150.5,700 Z M1150.5,701.963729 C1154.10975,701.963729 1157.03604,704.889685 1157.03604,708.500982 C1157.03604,712.110315 1154.10975,715.036271 1150.5,715.036271 C1146.89025,715.036271 1143.96396,712.110315 1143.96396,708.500982 C1143.96396,704.889685 1146.89025,701.963729 1150.5,701.963729 L1150.5,701.963729 Z" id="Fill-73" fill="#FFFFFF"></path>
                            <path d="M1270.49804,700 C1265.81116,700 1262,703.813561 1262,708.500982 C1262,713.188402 1265.81116,717 1270.49804,717 C1275.18688,717 1279,713.188402 1279,708.500982 C1279,703.813561 1275.18688,700 1270.49804,700 Z M1270.49804,701.963729 C1274.11088,701.963729 1277.0365,704.889685 1277.0365,708.500982 C1277.0365,712.110315 1274.11088,715.036271 1270.49804,715.036271 C1266.88912,715.036271 1263.9635,712.110315 1263.9635,708.500982 C1263.9635,704.889685 1266.88912,701.963729 1270.49804,701.963729 L1270.49804,701.963729 Z" id="Fill-74" fill="#FFFFFF"></path>
                            <path d="M253.5,804 C248.813121,804 245,807.811598 245,812.499018 C245,817.184475 248.813121,821 253.5,821 C258.186879,821 262,817.184475 262,812.499018 C262,807.811598 258.186879,804 253.5,804 Z M253.5,805.963729 C257.108917,805.963729 260.036498,808.889685 260.036498,812.499018 C260.036498,816.110315 257.108917,819.036271 253.5,819.036271 C249.891083,819.036271 246.963502,816.110315 246.963502,812.499018 C246.963502,808.889685 249.891083,805.963729 253.5,805.963729 L253.5,805.963729 Z" id="Fill-77" fill="#FFFFFF"></path>
                            <path d="M373.500982,804 C368.813561,804 365,807.811598 365,812.499018 C365,817.184475 368.813561,821 373.500982,821 C378.188402,821 382,817.184475 382,812.499018 C382,807.811598 378.188402,804 373.500982,804 Z M373.500982,805.963729 C377.110315,805.963729 380.036271,808.889685 380.036271,812.499018 C380.036271,816.110315 377.110315,819.036271 373.500982,819.036271 C369.889685,819.036271 366.963729,816.110315 366.963729,812.499018 C366.963729,808.889685 369.889685,805.963729 373.500982,805.963729 L373.500982,805.963729 Z" id="Fill-78" fill="#FFFFFF"></path>
                            <path d="M612.5,804 C607.812038,804 604,807.811598 604,812.499018 C604,817.184475 607.812038,821 612.5,821 C617.185998,821 621,817.184475 621,812.499018 C621,807.811598 617.185998,804 612.5,804 Z M612.5,805.963729 C616.10975,805.963729 619.036044,808.889685 619.036044,812.499018 C619.036044,816.110315 616.10975,819.036271 612.5,819.036271 C608.89025,819.036271 605.963956,816.110315 605.963956,812.499018 C605.963956,808.889685 608.89025,805.963729 612.5,805.963729 L612.5,805.963729 Z" id="Fill-79" fill="#FFFFFF"></path>
                            <path d="M732.500982,804 C727.81268,804 724,807.811598 724,812.499018 C724,817.184475 727.81268,821 732.500982,821 C737.18732,821 741,817.184475 741,812.499018 C741,807.811598 737.18732,804 732.500982,804 Z M732.500982,805.963729 C736.109481,805.963729 739.036725,808.889685 739.036725,812.499018 C739.036725,816.110315 736.109481,819.036271 732.500982,819.036271 C728.890519,819.036271 725.963275,816.110315 725.963275,812.499018 C725.963275,808.889685 728.890519,805.963729 732.500982,805.963729 L732.500982,805.963729 Z" id="Fill-80" fill="#FFFFFF"></path>
                            <path d="M972.5,804 C967.812038,804 964,807.811598 964,812.499018 C964,817.184475 967.812038,821 972.5,821 C977.185998,821 981,817.184475 981,812.499018 C981,807.811598 977.185998,804 972.5,804 Z M972.5,805.963729 C976.10975,805.963729 979.036044,808.889685 979.036044,812.499018 C979.036044,816.110315 976.10975,819.036271 972.5,819.036271 C968.89025,819.036271 965.963956,816.110315 965.963956,812.499018 C965.963956,808.889685 968.89025,805.963729 972.5,805.963729 L972.5,805.963729 Z" id="Fill-81" fill="#FFFFFF"></path>
                            <path d="M1092.49804,804 C1087.81116,804 1084,807.811598 1084,812.499018 C1084,817.184475 1087.81116,821 1092.49804,821 C1097.18492,821 1101,817.184475 1101,812.499018 C1101,807.811598 1097.18492,804 1092.49804,804 Z M1092.49804,805.963729 C1096.10892,805.963729 1099.0365,808.889685 1099.0365,812.499018 C1099.0365,816.110315 1096.10892,819.036271 1092.49804,819.036271 C1088.88912,819.036271 1085.9635,816.110315 1085.9635,812.499018 C1085.9635,808.889685 1088.88912,805.963729 1092.49804,805.963729 L1092.49804,805.963729 Z" id="Fill-82" fill="#FFFFFF"></path>
                            <path d="M1331.5,804 C1326.81204,804 1323,807.811598 1323,812.499018 C1323,817.184475 1326.81204,821 1331.5,821 C1336.18796,821 1340,817.184475 1340,812.499018 C1340,807.811598 1336.18796,804 1331.5,804 Z M1331.5,805.963729 C1335.10975,805.963729 1338.03604,808.889685 1338.03604,812.499018 C1338.03604,816.110315 1335.10975,819.036271 1331.5,819.036271 C1327.89025,819.036271 1324.96396,816.110315 1324.96396,812.499018 C1324.96396,808.889685 1327.89025,805.963729 1331.5,805.963729 L1331.5,805.963729 Z" id="Fill-83" fill="#FFFFFF"></path>
                            <path d="M1451.49804,804 C1446.81116,804 1443,807.811598 1443,812.499018 C1443,817.184475 1446.81116,821 1451.49804,821 C1456.18492,821 1460,817.184475 1460,812.499018 C1460,807.811598 1456.18492,804 1451.49804,804 Z M1451.49804,805.963729 C1455.11088,805.963729 1458.0365,808.889685 1458.0365,812.499018 C1458.0365,816.110315 1455.11088,819.036271 1451.49804,819.036271 C1447.88912,819.036271 1444.9635,816.110315 1444.9635,812.499018 C1444.9635,808.889685 1447.88912,805.963729 1451.49804,805.963729 L1451.49804,805.963729 Z" id="Fill-84" fill="#FFFFFF"></path>
                            <path d="M72.5009819,906 C67.8135613,906 64,909.813561 64,914.499018 C64,919.186439 67.8135613,923 72.5009819,923 C77.1884024,923 81,919.186439 81,914.499018 C81,909.813561 77.1884024,906 72.5009819,906 Z M72.5009819,907.963729 C76.1103154,907.963729 79.0362712,910.889685 79.0362712,914.499018 C79.0362712,918.110315 76.1103154,921.036271 72.5009819,921.036271 C68.8916484,921.036271 65.9637288,918.110315 65.9637288,914.499018 C65.9637288,910.889685 68.8916484,907.963729 72.5009819,907.963729 L72.5009819,907.963729 Z" id="Fill-85" fill="#FFFFFF"></path>
                            <path d="M192.500982,906 C187.813561,906 184,909.813561 184,914.499018 C184,919.186439 187.813561,923 192.500982,923 C197.186439,923 201,919.186439 201,914.499018 C201,909.813561 197.186439,906 192.500982,906 Z M192.500982,907.963729 C196.110315,907.963729 199.036271,910.889685 199.036271,914.499018 C199.036271,918.110315 196.110315,921.036271 192.500982,921.036271 C188.889685,921.036271 185.963729,918.110315 185.963729,914.499018 C185.963729,910.889685 188.889685,907.963729 192.500982,907.963729 L192.500982,907.963729 Z" id="Fill-86" fill="#FFFFFF"></path>
                            <path d="M431.500982,906 C426.813561,906 423,909.813561 423,914.499018 C423,919.186439 426.813561,923 431.500982,923 C436.186439,923 440,919.186439 440,914.499018 C440,909.813561 436.186439,906 431.500982,906 Z M431.500982,907.963729 C435.110315,907.963729 438.036271,910.889685 438.036271,914.499018 C438.036271,918.110315 435.110315,921.036271 431.500982,921.036271 C427.889685,921.036271 424.963729,918.110315 424.963729,914.499018 C424.963729,910.889685 427.889685,907.963729 431.500982,907.963729 L431.500982,907.963729 Z" id="Fill-87" fill="#FFFFFF"></path>
                            <path d="M552.499018,906 C547.813561,906 544,909.813561 544,914.499018 C544,919.186439 547.813561,923 552.499018,923 C557.186439,923 561,919.186439 561,914.499018 C561,909.813561 557.186439,906 552.499018,906 Z M552.499018,907.963729 C556.110315,907.963729 559.036271,910.889685 559.036271,914.499018 C559.036271,918.110315 556.110315,921.036271 552.499018,921.036271 C548.889685,921.036271 545.963729,918.110315 545.963729,914.499018 C545.963729,910.889685 548.889685,907.963729 552.499018,907.963729 L552.499018,907.963729 Z" id="Fill-88" fill="#FFFFFF"></path>
                            <path d="M791.5,906 C786.812038,906 783,909.813561 783,914.499018 C783,919.186439 786.812038,923 791.5,923 C796.187962,923 800,919.186439 800,914.499018 C800,909.813561 796.187962,906 791.5,906 Z M791.5,907.963729 C795.10975,907.963729 798.036044,910.889685 798.036044,914.499018 C798.036044,918.110315 795.10975,921.036271 791.5,921.036271 C787.89025,921.036271 784.963956,918.110315 784.963956,914.499018 C784.963956,910.889685 787.89025,907.963729 791.5,907.963729 L791.5,907.963729 Z" id="Fill-89" fill="#FFFFFF"></path>
                            <path d="M911.5,906 C906.813121,906 903,909.813561 903,914.499018 C903,919.186439 906.813121,923 911.5,923 C916.186879,923 920,919.186439 920,914.499018 C920,909.813561 916.186879,906 911.5,906 Z M911.5,907.963729 C915.11088,907.963729 918.036498,910.889685 918.036498,914.499018 C918.036498,918.110315 915.11088,921.036271 911.5,921.036271 C907.88912,921.036271 904.963502,918.110315 904.963502,914.499018 C904.963502,910.889685 907.88912,907.963729 911.5,907.963729 L911.5,907.963729 Z" id="Fill-90" fill="#FFFFFF"></path>
                            <path d="M1150.5,906 C1145.814,906 1142,909.813561 1142,914.499018 C1142,919.186439 1145.814,923 1150.5,923 C1155.18796,923 1159,919.186439 1159,914.499018 C1159,909.813561 1155.18796,906 1150.5,906 Z M1150.5,907.963729 C1154.10975,907.963729 1157.03604,910.889685 1157.03604,914.499018 C1157.03604,918.110315 1154.10975,921.036271 1150.5,921.036271 C1146.89025,921.036271 1143.96396,918.110315 1143.96396,914.499018 C1143.96396,910.889685 1146.89025,907.963729 1150.5,907.963729 L1150.5,907.963729 Z" id="Fill-91" fill="#FFFFFF"></path>
                            <path d="M1270.49804,906 C1265.81116,906 1262,909.813561 1262,914.499018 C1262,919.186439 1265.81116,923 1270.49804,923 C1275.18688,923 1279,919.186439 1279,914.499018 C1279,909.813561 1275.18688,906 1270.49804,906 Z M1270.49804,907.963729 C1274.11088,907.963729 1277.0365,910.889685 1277.0365,914.499018 C1277.0365,918.110315 1274.11088,921.036271 1270.49804,921.036271 C1266.88912,921.036271 1263.9635,918.110315 1263.9635,914.499018 C1263.9635,910.889685 1266.88912,907.963729 1270.49804,907.963729 L1270.49804,907.963729 Z" id="Fill-92" fill="#FFFFFF"></path>
                            <path d="M253.5,1011 C248.813121,1011 245,1014.8116 245,1019.49902 C245,1024.18447 248.813121,1028 253.5,1028 C258.186879,1028 262,1024.18447 262,1019.49902 C262,1014.8116 258.186879,1011 253.5,1011 Z M253.5,1012.96373 C257.108917,1012.96373 260.036498,1015.88968 260.036498,1019.49902 C260.036498,1023.11032 257.108917,1026.03627 253.5,1026.03627 C249.891083,1026.03627 246.963502,1023.11032 246.963502,1019.49902 C246.963502,1015.88968 249.891083,1012.96373 253.5,1012.96373 L253.5,1012.96373 Z" id="Fill-95" fill="#FFFFFF"></path>
                            <path d="M373.500982,1011 C368.813561,1011 365,1014.8116 365,1019.49902 C365,1024.18447 368.813561,1028 373.500982,1028 C378.188402,1028 382,1024.18447 382,1019.49902 C382,1014.8116 378.188402,1011 373.500982,1011 Z M373.500982,1012.96373 C377.110315,1012.96373 380.036271,1015.88968 380.036271,1019.49902 C380.036271,1023.11032 377.110315,1026.03627 373.500982,1026.03627 C369.889685,1026.03627 366.963729,1023.11032 366.963729,1019.49902 C366.963729,1015.88968 369.889685,1012.96373 373.500982,1012.96373 L373.500982,1012.96373 Z" id="Fill-96" fill="#FFFFFF"></path>
                            <path d="M612.5,1011 C607.812038,1011 604,1014.8116 604,1019.49902 C604,1024.18447 607.812038,1028 612.5,1028 C617.185998,1028 621,1024.18447 621,1019.49902 C621,1014.8116 617.185998,1011 612.5,1011 Z M612.5,1012.96373 C616.10975,1012.96373 619.036044,1015.88968 619.036044,1019.49902 C619.036044,1023.11032 616.10975,1026.03627 612.5,1026.03627 C608.89025,1026.03627 605.963956,1023.11032 605.963956,1019.49902 C605.963956,1015.88968 608.89025,1012.96373 612.5,1012.96373 L612.5,1012.96373 Z" id="Fill-97" fill="#FFFFFF"></path>
                            <path d="M732.500982,1011 C727.81268,1011 724,1014.8116 724,1019.49902 C724,1024.18447 727.81268,1028 732.500982,1028 C737.18732,1028 741,1024.18447 741,1019.49902 C741,1014.8116 737.18732,1011 732.500982,1011 Z M732.500982,1012.96373 C736.109481,1012.96373 739.036725,1015.88968 739.036725,1019.49902 C739.036725,1023.11032 736.109481,1026.03627 732.500982,1026.03627 C728.890519,1026.03627 725.963275,1023.11032 725.963275,1019.49902 C725.963275,1015.88968 728.890519,1012.96373 732.500982,1012.96373 L732.500982,1012.96373 Z" id="Fill-98" fill="#FFFFFF"></path>
                            <path d="M972.5,1011 C967.812038,1011 964,1014.8116 964,1019.49902 C964,1024.18447 967.812038,1028 972.5,1028 C977.185998,1028 981,1024.18447 981,1019.49902 C981,1014.8116 977.185998,1011 972.5,1011 Z M972.5,1012.96373 C976.10975,1012.96373 979.036044,1015.88968 979.036044,1019.49902 C979.036044,1023.11032 976.10975,1026.03627 972.5,1026.03627 C968.89025,1026.03627 965.963956,1023.11032 965.963956,1019.49902 C965.963956,1015.88968 968.89025,1012.96373 972.5,1012.96373 L972.5,1012.96373 Z" id="Fill-99" fill="#FFFFFF"></path>
                            <path d="M1092.49804,1011 C1087.81116,1011 1084,1014.8116 1084,1019.49902 C1084,1024.18447 1087.81116,1028 1092.49804,1028 C1097.18492,1028 1101,1024.18447 1101,1019.49902 C1101,1014.8116 1097.18492,1011 1092.49804,1011 Z M1092.49804,1012.96373 C1096.10892,1012.96373 1099.0365,1015.88968 1099.0365,1019.49902 C1099.0365,1023.11032 1096.10892,1026.03627 1092.49804,1026.03627 C1088.88912,1026.03627 1085.9635,1023.11032 1085.9635,1019.49902 C1085.9635,1015.88968 1088.88912,1012.96373 1092.49804,1012.96373 L1092.49804,1012.96373 Z" id="Fill-100" fill="#FFFFFF"></path>
                            <path d="M1331.5,1011 C1326.81204,1011 1323,1014.8116 1323,1019.49902 C1323,1024.18447 1326.81204,1028 1331.5,1028 C1336.18796,1028 1340,1024.18447 1340,1019.49902 C1340,1014.8116 1336.18796,1011 1331.5,1011 Z M1331.5,1012.96373 C1335.10975,1012.96373 1338.03604,1015.88968 1338.03604,1019.49902 C1338.03604,1023.11032 1335.10975,1026.03627 1331.5,1026.03627 C1327.89025,1026.03627 1324.96396,1023.11032 1324.96396,1019.49902 C1324.96396,1015.88968 1327.89025,1012.96373 1331.5,1012.96373 L1331.5,1012.96373 Z" id="Fill-101" fill="#FFFFFF"></path>
                            <path d="M1451.49804,1011 C1446.81116,1011 1443,1014.8116 1443,1019.49902 C1443,1024.18447 1446.81116,1028 1451.49804,1028 C1456.18492,1028 1460,1024.18447 1460,1019.49902 C1460,1014.8116 1456.18492,1011 1451.49804,1011 Z M1451.49804,1012.96373 C1455.11088,1012.96373 1458.0365,1015.88968 1458.0365,1019.49902 C1458.0365,1023.11032 1455.11088,1026.03627 1451.49804,1026.03627 C1447.88912,1026.03627 1444.9635,1023.11032 1444.9635,1019.49902 C1444.9635,1015.88968 1447.88912,1012.96373 1451.49804,1012.96373 L1451.49804,1012.96373 Z" id="Fill-102" fill="#FFFFFF"></path>
                            <path d="M72.5009819,1113 C67.8135613,1113 64,1116.81356 64,1121.49902 C64,1126.18644 67.8135613,1130 72.5009819,1130 C77.1884024,1130 81,1126.18644 81,1121.49902 C81,1116.81356 77.1884024,1113 72.5009819,1113 Z M72.5009819,1114.96373 C76.1103154,1114.96373 79.0362712,1117.88968 79.0362712,1121.49902 C79.0362712,1125.11032 76.1103154,1128.03627 72.5009819,1128.03627 C68.8916484,1128.03627 65.9637288,1125.11032 65.9637288,1121.49902 C65.9637288,1117.88968 68.8916484,1114.96373 72.5009819,1114.96373 L72.5009819,1114.96373 Z" id="Fill-103" fill="#FFFFFF"></path>
                            <path d="M192.500982,1113 C187.813561,1113 184,1116.81356 184,1121.49902 C184,1126.18644 187.813561,1130 192.500982,1130 C197.186439,1130 201,1126.18644 201,1121.49902 C201,1116.81356 197.186439,1113 192.500982,1113 Z M192.500982,1114.96373 C196.110315,1114.96373 199.036271,1117.88968 199.036271,1121.49902 C199.036271,1125.11032 196.110315,1128.03627 192.500982,1128.03627 C188.889685,1128.03627 185.963729,1125.11032 185.963729,1121.49902 C185.963729,1117.88968 188.889685,1114.96373 192.500982,1114.96373 L192.500982,1114.96373 Z" id="Fill-104" fill="#FFFFFF"></path>
                            <path d="M431.500982,1113 C426.813561,1113 423,1116.81356 423,1121.49902 C423,1126.18644 426.813561,1130 431.500982,1130 C436.186439,1130 440,1126.18644 440,1121.49902 C440,1116.81356 436.186439,1113 431.500982,1113 Z M431.500982,1114.96373 C435.110315,1114.96373 438.036271,1117.88968 438.036271,1121.49902 C438.036271,1125.11032 435.110315,1128.03627 431.500982,1128.03627 C427.889685,1128.03627 424.963729,1125.11032 424.963729,1121.49902 C424.963729,1117.88968 427.889685,1114.96373 431.500982,1114.96373 L431.500982,1114.96373 Z" id="Fill-105" fill="#FFFFFF"></path>
                            <path d="M552.499018,1113 C547.813561,1113 544,1116.81356 544,1121.49902 C544,1126.18644 547.813561,1130 552.499018,1130 C557.186439,1130 561,1126.18644 561,1121.49902 C561,1116.81356 557.186439,1113 552.499018,1113 Z M552.499018,1114.96373 C556.110315,1114.96373 559.036271,1117.88968 559.036271,1121.49902 C559.036271,1125.11032 556.110315,1128.03627 552.499018,1128.03627 C548.889685,1128.03627 545.963729,1125.11032 545.963729,1121.49902 C545.963729,1117.88968 548.889685,1114.96373 552.499018,1114.96373 L552.499018,1114.96373 Z" id="Fill-106" fill="#FFFFFF"></path>
                            <path d="M791.5,1113 C786.812038,1113 783,1116.81356 783,1121.49902 C783,1126.18644 786.812038,1130 791.5,1130 C796.187962,1130 800,1126.18644 800,1121.49902 C800,1116.81356 796.187962,1113 791.5,1113 Z M791.5,1114.96373 C795.10975,1114.96373 798.036044,1117.88968 798.036044,1121.49902 C798.036044,1125.11032 795.10975,1128.03627 791.5,1128.03627 C787.89025,1128.03627 784.963956,1125.11032 784.963956,1121.49902 C784.963956,1117.88968 787.89025,1114.96373 791.5,1114.96373 L791.5,1114.96373 Z" id="Fill-107" fill="#FFFFFF"></path>
                            <path d="M911.5,1113 C906.813121,1113 903,1116.81356 903,1121.49902 C903,1126.18644 906.813121,1130 911.5,1130 C916.186879,1130 920,1126.18644 920,1121.49902 C920,1116.81356 916.186879,1113 911.5,1113 Z M911.5,1114.96373 C915.11088,1114.96373 918.036498,1117.88968 918.036498,1121.49902 C918.036498,1125.11032 915.11088,1128.03627 911.5,1128.03627 C907.88912,1128.03627 904.963502,1125.11032 904.963502,1121.49902 C904.963502,1117.88968 907.88912,1114.96373 911.5,1114.96373 L911.5,1114.96373 Z" id="Fill-108" fill="#FFFFFF"></path>
                            <path d="M1150.5,1113 C1145.814,1113 1142,1116.81356 1142,1121.49902 C1142,1126.18644 1145.814,1130 1150.5,1130 C1155.18796,1130 1159,1126.18644 1159,1121.49902 C1159,1116.81356 1155.18796,1113 1150.5,1113 Z M1150.5,1114.96373 C1154.10975,1114.96373 1157.03604,1117.88968 1157.03604,1121.49902 C1157.03604,1125.11032 1154.10975,1128.03627 1150.5,1128.03627 C1146.89025,1128.03627 1143.96396,1125.11032 1143.96396,1121.49902 C1143.96396,1117.88968 1146.89025,1114.96373 1150.5,1114.96373 L1150.5,1114.96373 Z" id="Fill-109" fill="#FFFFFF"></path>
                            <path d="M1270.49804,1113 C1265.81116,1113 1262,1116.81356 1262,1121.49902 C1262,1126.18644 1265.81116,1130 1270.49804,1130 C1275.18688,1130 1279,1126.18644 1279,1121.49902 C1279,1116.81356 1275.18688,1113 1270.49804,1113 Z M1270.49804,1114.96373 C1274.11088,1114.96373 1277.0365,1117.88968 1277.0365,1121.49902 C1277.0365,1125.11032 1274.11088,1128.03627 1270.49804,1128.03627 C1266.88912,1128.03627 1263.9635,1125.11032 1263.9635,1121.49902 C1263.9635,1117.88968 1266.88912,1114.96373 1270.49804,1114.96373 L1270.49804,1114.96373 Z" id="Fill-110" fill="#FFFFFF"></path>
                            <path d="M253.5,1217 C248.813121,1217 245,1220.8116 245,1225.49902 C245,1230.18447 248.813121,1234 253.5,1234 C258.186879,1234 262,1230.18447 262,1225.49902 C262,1220.8116 258.186879,1217 253.5,1217 Z M253.5,1218.96373 C257.108917,1218.96373 260.036498,1221.88968 260.036498,1225.49902 C260.036498,1229.11032 257.108917,1232.03627 253.5,1232.03627 C249.891083,1232.03627 246.963502,1229.11032 246.963502,1225.49902 C246.963502,1221.88968 249.891083,1218.96373 253.5,1218.96373 L253.5,1218.96373 Z" id="Fill-113" fill="#FFFFFF"></path>
                            <path d="M373.500982,1217 C368.813561,1217 365,1220.8116 365,1225.49902 C365,1230.18447 368.813561,1234 373.500982,1234 C378.188402,1234 382,1230.18447 382,1225.49902 C382,1220.8116 378.188402,1217 373.500982,1217 Z M373.500982,1218.96373 C377.110315,1218.96373 380.036271,1221.88968 380.036271,1225.49902 C380.036271,1229.11032 377.110315,1232.03627 373.500982,1232.03627 C369.889685,1232.03627 366.963729,1229.11032 366.963729,1225.49902 C366.963729,1221.88968 369.889685,1218.96373 373.500982,1218.96373 L373.500982,1218.96373 Z" id="Fill-114" fill="#FFFFFF"></path>
                            <path d="M612.5,1217 C607.812038,1217 604,1220.8116 604,1225.49902 C604,1230.18447 607.812038,1234 612.5,1234 C617.185998,1234 621,1230.18447 621,1225.49902 C621,1220.8116 617.185998,1217 612.5,1217 Z M612.5,1218.96373 C616.10975,1218.96373 619.036044,1221.88968 619.036044,1225.49902 C619.036044,1229.11032 616.10975,1232.03627 612.5,1232.03627 C608.89025,1232.03627 605.963956,1229.11032 605.963956,1225.49902 C605.963956,1221.88968 608.89025,1218.96373 612.5,1218.96373 L612.5,1218.96373 Z" id="Fill-115" fill="#FFFFFF"></path>
                            <path d="M732.500982,1217 C727.81268,1217 724,1220.8116 724,1225.49902 C724,1230.18447 727.81268,1234 732.500982,1234 C737.18732,1234 741,1230.18447 741,1225.49902 C741,1220.8116 737.18732,1217 732.500982,1217 Z M732.500982,1218.96373 C736.109481,1218.96373 739.036725,1221.88968 739.036725,1225.49902 C739.036725,1229.11032 736.109481,1232.03627 732.500982,1232.03627 C728.890519,1232.03627 725.963275,1229.11032 725.963275,1225.49902 C725.963275,1221.88968 728.890519,1218.96373 732.500982,1218.96373 L732.500982,1218.96373 Z" id="Fill-116" fill="#FFFFFF"></path>
                            <path d="M972.5,1217 C967.812038,1217 964,1220.8116 964,1225.49902 C964,1230.18447 967.812038,1234 972.5,1234 C977.185998,1234 981,1230.18447 981,1225.49902 C981,1220.8116 977.185998,1217 972.5,1217 Z M972.5,1218.96373 C976.10975,1218.96373 979.036044,1221.88968 979.036044,1225.49902 C979.036044,1229.11032 976.10975,1232.03627 972.5,1232.03627 C968.89025,1232.03627 965.963956,1229.11032 965.963956,1225.49902 C965.963956,1221.88968 968.89025,1218.96373 972.5,1218.96373 L972.5,1218.96373 Z" id="Fill-117" fill="#FFFFFF"></path>
                            <path d="M1092.49804,1217 C1087.81116,1217 1084,1220.8116 1084,1225.49902 C1084,1230.18447 1087.81116,1234 1092.49804,1234 C1097.18492,1234 1101,1230.18447 1101,1225.49902 C1101,1220.8116 1097.18492,1217 1092.49804,1217 Z M1092.49804,1218.96373 C1096.10892,1218.96373 1099.0365,1221.88968 1099.0365,1225.49902 C1099.0365,1229.11032 1096.10892,1232.03627 1092.49804,1232.03627 C1088.88912,1232.03627 1085.9635,1229.11032 1085.9635,1225.49902 C1085.9635,1221.88968 1088.88912,1218.96373 1092.49804,1218.96373 L1092.49804,1218.96373 Z" id="Fill-118" fill="#FFFFFF"></path>
                            <path d="M1331.5,1217 C1326.81204,1217 1323,1220.8116 1323,1225.49902 C1323,1230.18447 1326.81204,1234 1331.5,1234 C1336.18796,1234 1340,1230.18447 1340,1225.49902 C1340,1220.8116 1336.18796,1217 1331.5,1217 Z M1331.5,1218.96373 C1335.10975,1218.96373 1338.03604,1221.88968 1338.03604,1225.49902 C1338.03604,1229.11032 1335.10975,1232.03627 1331.5,1232.03627 C1327.89025,1232.03627 1324.96396,1229.11032 1324.96396,1225.49902 C1324.96396,1221.88968 1327.89025,1218.96373 1331.5,1218.96373 L1331.5,1218.96373 Z" id="Fill-119" fill="#FFFFFF"></path>
                            <path d="M1451.49804,1217 C1446.81116,1217 1443,1220.8116 1443,1225.49902 C1443,1230.18447 1446.81116,1234 1451.49804,1234 C1456.18492,1234 1460,1230.18447 1460,1225.49902 C1460,1220.8116 1456.18492,1217 1451.49804,1217 Z M1451.49804,1218.96373 C1455.11088,1218.96373 1458.0365,1221.88968 1458.0365,1225.49902 C1458.0365,1229.11032 1455.11088,1232.03627 1451.49804,1232.03627 C1447.88912,1232.03627 1444.9635,1229.11032 1444.9635,1225.49902 C1444.9635,1221.88968 1447.88912,1218.96373 1451.49804,1218.96373 L1451.49804,1218.96373 Z" id="Fill-120" fill="#FFFFFF"></path>
                            <path d="M72.5009819,1320 C67.8135613,1320 64,1323.81356 64,1328.49902 C64,1333.18644 67.8135613,1337 72.5009819,1337 C77.1884024,1337 81,1333.18644 81,1328.49902 C81,1323.81356 77.1884024,1320 72.5009819,1320 Z M72.5009819,1321.96373 C76.1103154,1321.96373 79.0362712,1324.88968 79.0362712,1328.49902 C79.0362712,1332.11032 76.1103154,1335.03627 72.5009819,1335.03627 C68.8916484,1335.03627 65.9637288,1332.11032 65.9637288,1328.49902 C65.9637288,1324.88968 68.8916484,1321.96373 72.5009819,1321.96373 L72.5009819,1321.96373 Z" id="Fill-121" fill="#FFFFFF"></path>
                            <path d="M192.500982,1320 C187.813561,1320 184,1323.81356 184,1328.49902 C184,1333.18644 187.813561,1337 192.500982,1337 C197.186439,1337 201,1333.18644 201,1328.49902 C201,1323.81356 197.186439,1320 192.500982,1320 Z M192.500982,1321.96373 C196.110315,1321.96373 199.036271,1324.88968 199.036271,1328.49902 C199.036271,1332.11032 196.110315,1335.03627 192.500982,1335.03627 C188.889685,1335.03627 185.963729,1332.11032 185.963729,1328.49902 C185.963729,1324.88968 188.889685,1321.96373 192.500982,1321.96373 L192.500982,1321.96373 Z" id="Fill-122" fill="#FFFFFF"></path>
                            <path d="M431.500982,1320 C426.813561,1320 423,1323.81356 423,1328.49902 C423,1333.18644 426.813561,1337 431.500982,1337 C436.186439,1337 440,1333.18644 440,1328.49902 C440,1323.81356 436.186439,1320 431.500982,1320 Z M431.500982,1321.96373 C435.110315,1321.96373 438.036271,1324.88968 438.036271,1328.49902 C438.036271,1332.11032 435.110315,1335.03627 431.500982,1335.03627 C427.889685,1335.03627 424.963729,1332.11032 424.963729,1328.49902 C424.963729,1324.88968 427.889685,1321.96373 431.500982,1321.96373 L431.500982,1321.96373 Z" id="Fill-123" fill="#FFFFFF"></path>
                            <path d="M552.499018,1320 C547.813561,1320 544,1323.81356 544,1328.49902 C544,1333.18644 547.813561,1337 552.499018,1337 C557.186439,1337 561,1333.18644 561,1328.49902 C561,1323.81356 557.186439,1320 552.499018,1320 Z M552.499018,1321.96373 C556.110315,1321.96373 559.036271,1324.88968 559.036271,1328.49902 C559.036271,1332.11032 556.110315,1335.03627 552.499018,1335.03627 C548.889685,1335.03627 545.963729,1332.11032 545.963729,1328.49902 C545.963729,1324.88968 548.889685,1321.96373 552.499018,1321.96373 L552.499018,1321.96373 Z" id="Fill-124" fill="#FFFFFF"></path>
                            <path d="M791.5,1320 C786.812038,1320 783,1323.81356 783,1328.49902 C783,1333.18644 786.812038,1337 791.5,1337 C796.187962,1337 800,1333.18644 800,1328.49902 C800,1323.81356 796.187962,1320 791.5,1320 Z M791.5,1321.96373 C795.10975,1321.96373 798.036044,1324.88968 798.036044,1328.49902 C798.036044,1332.11032 795.10975,1335.03627 791.5,1335.03627 C787.89025,1335.03627 784.963956,1332.11032 784.963956,1328.49902 C784.963956,1324.88968 787.89025,1321.96373 791.5,1321.96373 L791.5,1321.96373 Z" id="Fill-125" fill="#FFFFFF"></path>
                            <path d="M911.5,1320 C906.813121,1320 903,1323.81356 903,1328.49902 C903,1333.18644 906.813121,1337 911.5,1337 C916.186879,1337 920,1333.18644 920,1328.49902 C920,1323.81356 916.186879,1320 911.5,1320 Z M911.5,1321.96373 C915.11088,1321.96373 918.036498,1324.88968 918.036498,1328.49902 C918.036498,1332.11032 915.11088,1335.03627 911.5,1335.03627 C907.88912,1335.03627 904.963502,1332.11032 904.963502,1328.49902 C904.963502,1324.88968 907.88912,1321.96373 911.5,1321.96373 L911.5,1321.96373 Z" id="Fill-126" fill="#FFFFFF"></path>
                            <path d="M1150.5,1320 C1145.814,1320 1142,1323.81356 1142,1328.49902 C1142,1333.18644 1145.814,1337 1150.5,1337 C1155.18796,1337 1159,1333.18644 1159,1328.49902 C1159,1323.81356 1155.18796,1320 1150.5,1320 Z M1150.5,1321.96373 C1154.10975,1321.96373 1157.03604,1324.88968 1157.03604,1328.49902 C1157.03604,1332.11032 1154.10975,1335.03627 1150.5,1335.03627 C1146.89025,1335.03627 1143.96396,1332.11032 1143.96396,1328.49902 C1143.96396,1324.88968 1146.89025,1321.96373 1150.5,1321.96373 L1150.5,1321.96373 Z" id="Fill-127" fill="#FFFFFF"></path>
                            <path d="M1270.49804,1320 C1265.81116,1320 1262,1323.81356 1262,1328.49902 C1262,1333.18644 1265.81116,1337 1270.49804,1337 C1275.18688,1337 1279,1333.18644 1279,1328.49902 C1279,1323.81356 1275.18688,1320 1270.49804,1320 Z M1270.49804,1321.96373 C1274.11088,1321.96373 1277.0365,1324.88968 1277.0365,1328.49902 C1277.0365,1332.11032 1274.11088,1335.03627 1270.49804,1335.03627 C1266.88912,1335.03627 1263.9635,1332.11032 1263.9635,1328.49902 C1263.9635,1324.88968 1266.88912,1321.96373 1270.49804,1321.96373 L1270.49804,1321.96373 Z" id="Fill-128" fill="#FFFFFF"></path>
                        </g>
                    </g>
                </g>
            </g>
        </g>
    </g>
</svg>