<?xml version="1.0" encoding="UTF-8"?>
<svg width="69px" height="70px" viewBox="0 0 69 70" version="1.1" xmlns="http://www.w3.org/2000/svg" xmlns:xlink="http://www.w3.org/1999/xlink">
    <!-- Generator: Sketch 47.1 (45422) - http://www.bohemiancoding.com/sketch -->
    <title>Group 30</title>
    <desc>Created with Sketch.</desc>
    <defs>
        <linearGradient x1="0.00575871005%" y1="50.0037415%" x2="99.9884826%" y2="50.0037415%" id="linearGradient-1">
            <stop stop-color="#003F7D" offset="0%"></stop>
            <stop stop-color="#00A1AE" offset="100%"></stop>
        </linearGradient>
    </defs>
    <g id="Page-1" stroke="none" stroke-width="1" fill="none" fill-rule="evenodd">
        <g id="Home" transform="translate(-843.000000, -386.000000)" fill-rule="nonzero" fill="url(#linearGradient-1)">
            <g id="Group-6" transform="translate(756.000000, 249.000000)">
                <g id="Group-3" transform="translate(0.000000, 107.000000)">
                    <g id="Group-30" transform="translate(87.000000, 30.000000)">
                        <g id="Group-19">
                            <g id="bitcoin">
                                <path d="M47.5588235,10.2941176 L47.5588235,12.5 L45.2941176,12.5 L45.2941176,23.5294118 L47.5588235,23.5294118 L47.5588235,25.7352941 L49.8235294,25.7352941 L49.8235294,23.5294118 L52.0882353,23.5294118 L52.0882353,25.7352941 L54.3529412,25.7352941 L54.3529412,23.3264706 C55.6676029,22.8698529 56.6176471,21.6566176 56.6176471,20.2205882 C56.6176471,19.3735294 56.2892647,18.6003676 55.7502647,18.0147059 C56.2892647,17.4290441 56.6176471,16.6558824 56.6176471,15.8088235 C56.6176471,14.3727941 55.6676029,13.1595588 54.3529412,12.7029412 L54.3529412,10.2941176 L52.0882353,10.2941176 L52.0882353,12.5 L49.8235294,12.5 L49.8235294,10.2941176 L47.5588235,10.2941176 Z M53.2205882,21.3235294 L47.5588235,21.3235294 L47.5588235,19.1176471 L53.2205882,19.1176471 C53.8456471,19.1176471 54.3529412,19.6128676 54.3529412,20.2205882 C54.3529412,20.8283088 53.8456471,21.3235294 53.2205882,21.3235294 Z M53.2205882,14.7058824 C53.8456471,14.7058824 54.3529412,15.2011029 54.3529412,15.8088235 C54.3529412,16.4165441 53.8456471,16.9117647 53.2205882,16.9117647 L47.5588235,16.9117647 L47.5588235,14.7058824 L53.2205882,14.7058824 Z" id="Shape"></path>
                                <path d="M39.1176471,17.1256268 C39.1176471,19.8817864 40.0791994,22.5736973 41.8237145,24.7058824 L43.5083367,23.3261691 C42.0817981,21.582743 41.2955685,19.3797755 41.2955685,17.1256268 C41.2955685,11.7222037 45.6917029,7.32498027 51.096215,7.32498027 C53.3503637,7.32498027 55.5533312,8.11120991 57.2956684,9.53774845 L58.6764706,7.85203726 C56.5442855,6.10752218 53.8523746,5.14705882 51.096215,5.14705882 C44.4916682,5.14705882 39.1176471,10.52108 39.1176471,17.1256268 Z" id="Shape"></path>
                                <path d="M50.8155497,27.6750197 C48.561401,27.6750197 46.3584335,26.8887901 44.6160963,25.4622515 L43.2352941,27.1479627 C45.3674792,28.8924778 48.0593901,29.8529412 50.8155497,29.8529412 C57.4200965,29.8529412 62.7941176,24.47892 62.7941176,17.8743732 C62.7941176,15.1182136 61.8325653,12.4263027 60.0880503,10.2941176 L58.403428,11.6738309 C59.8299666,13.417257 60.6161962,15.6202245 60.6161962,17.8743732 C60.6161962,23.2777963 56.2200618,27.6750197 50.8155497,27.6750197 Z" id="Shape"></path>
                                <path d="M50.1152317,0 C46.8289389,0 43.738392,1.27961843 41.4151686,3.6039603 L22.6470588,22.3709516 L46.5996367,46.3235294 L65.3666279,27.5565381 C67.6898513,25.2321963 68.9705882,22.1427679 68.9705882,18.8564751 L68.9705882,0 L50.1152317,0 Z M66.7334931,18.8564751 C66.7334931,21.5454635 65.685414,24.073381 63.7850017,25.9749119 L46.5996367,43.1602769 L25.8103114,22.3709516 L42.9956764,5.18558657 C44.8972073,3.28405569 47.4251248,2.23709516 50.1141132,2.23709516 L66.7334931,2.23709516 L66.7334931,18.8564751 Z" id="Shape"></path>
                                <path d="M61.5704943,44.0362727 C61.5704943,45.2210997 61.1018629,46.3360352 60.2502156,47.174733 L59.3174591,48.0933068 L53.3548015,42.2213129 L51.7619057,43.7899884 L57.7245632,49.6619823 L55.9379064,51.4214726 L49.9752488,45.5494787 L48.3823529,47.1181542 L55.9379064,54.5588235 L61.8431115,48.7434085 C63.1205824,47.4853618 63.8235294,45.8135132 63.8235294,44.0362727 L63.8235294,31.9117647 L61.5704943,31.9117647 L61.5704943,44.0362727 Z" id="Shape"></path>
                                <path d="M23.4211095,18.9953394 L17.5491157,13.0326819 L19.308606,11.246025 L25.1805998,17.2086826 L26.7492753,15.6157867 L20.8772815,9.65312914 L21.7958552,8.72037259 C22.634553,7.8687253 23.7494885,7.40009398 24.9343156,7.40009398 L37.0588235,7.40009398 L37.0588235,5.14705882 L24.9343156,5.14705882 C23.157075,5.14705882 21.4863358,5.85000579 20.2271797,7.12635021 L14.4117647,13.0326819 L21.852434,20.5882353 L23.4211095,18.9953394 Z" id="Shape"></path>
                                <rect id="Rectangle-path" transform="translate(39.117647, 29.852941) rotate(-135.000000) translate(-39.117647, -29.852941) " x="26.7647059" y="28.8235294" width="24.7058824" height="2.05882353"></rect>
                                <path d="M24.1908766,45.1612903 C24.1908766,47.6519355 26.1635326,49.6774194 28.5892178,49.6774194 C31.014903,49.6774194 32.987559,47.6519355 32.987559,45.1612903 C32.987559,43.8064516 32.3915837,42.6029032 31.4679321,41.7741935 L33.9705882,36.6337097 L32.0034301,35.6232258 L29.5084711,40.7467742 C29.2115831,40.6824194 28.9047988,40.6451613 28.5892178,40.6451613 C27.077288,40.6451613 25.7423914,41.4332258 24.9495904,42.628871 L17.5537797,39.9158065 C17.5658752,39.7825806 17.5933648,39.6527419 17.5933648,39.516129 C17.5933648,37.0254839 15.6207088,35 13.1950236,35 C10.7693384,35 8.79668239,37.0254839 8.79668239,39.516129 C8.79668239,41.0820968 9.57738796,42.4617742 10.7583426,43.2724194 L4.75240766,61.005 C4.63365245,60.9948387 4.51929558,60.9677419 4.3983412,60.9677419 C1.97265603,60.9677419 0,62.9932258 0,65.483871 C0,67.9745161 1.97265603,70 4.3983412,70 C6.82402637,70 8.79668239,67.9745161 8.79668239,65.483871 C8.79668239,63.9179032 8.01597683,62.5382258 6.83502222,61.7275806 L12.8420567,43.995 C12.9597123,44.0051613 13.0740692,44.0322581 13.1950236,44.0322581 C14.7069534,44.0322581 16.0418499,43.2453226 16.8335513,42.0485484 L24.2304617,44.7616129 C24.2183662,44.8948387 24.1908766,45.0246774 24.1908766,45.1612903 Z M28.5892178,42.9032258 C29.8020604,42.9032258 30.7883884,43.9159677 30.7883884,45.1612903 C30.7883884,46.4066129 29.8020604,47.4193548 28.5892178,47.4193548 C27.3763752,47.4193548 26.3900472,46.4066129 26.3900472,45.1612903 C26.3900472,43.9159677 27.3763752,42.9032258 28.5892178,42.9032258 Z M4.3983412,67.7419355 C3.18549861,67.7419355 2.1991706,66.7291935 2.1991706,65.483871 C2.1991706,64.2385484 3.18549861,63.2258065 4.3983412,63.2258065 C5.61118378,63.2258065 6.5975118,64.2385484 6.5975118,65.483871 C6.5975118,66.7291935 5.61118378,67.7419355 4.3983412,67.7419355 Z M13.1950236,41.7741935 C11.982181,41.7741935 10.995853,40.7614516 10.995853,39.516129 C10.995853,38.2708065 11.982181,37.2580645 13.1950236,37.2580645 C14.4078662,37.2580645 15.3941942,38.2708065 15.3941942,39.516129 C15.3941942,40.7614516 14.4078662,41.7741935 13.1950236,41.7741935 Z" id="Shape"></path>
                                <rect id="Rectangle-path" transform="translate(38.088235, 53.529412) rotate(-135.000000) translate(-38.088235, -53.529412) " x="37.0588235" y="44.2647059" width="2.05882353" height="18.5294118"></rect>
                                <rect id="Rectangle-path" transform="translate(28.823529, 62.279412) rotate(-135.000000) translate(-28.823529, -62.279412) " x="27.7941176" y="60.7352941" width="2.05882353" height="3.08823529"></rect>
                                <rect id="Rectangle-path" transform="translate(33.455882, 51.470588) rotate(-45.000000) translate(-33.455882, -51.470588) " x="22.6470588" y="50.4411765" width="21.6176471" height="2.05882353"></rect>
                                <rect id="Rectangle-path" transform="translate(23.676471, 61.250000) rotate(-135.000000) translate(-23.676471, -61.250000) " x="22.6470588" y="59.7058824" width="2.05882353" height="3.08823529"></rect>
                                <rect id="Rectangle-path" transform="translate(18.529412, 28.308824) rotate(45.000000) translate(-18.529412, -28.308824) " x="17.5" y="22.6470588" width="2.05882353" height="11.3235294"></rect>
                                <rect id="Rectangle-path" transform="translate(22.647059, 31.397059) rotate(45.000000) translate(-22.647059, -31.397059) " x="21.6176471" y="26.7647059" width="2.05882353" height="9.26470588"></rect>
                            </g>
                        </g>
                    </g>
                </g>
            </g>
        </g>
    </g>
</svg>