<?xml version="1.0" encoding="UTF-8"?>
<svg width="54px" height="70px" viewBox="0 0 54 70" version="1.1" xmlns="http://www.w3.org/2000/svg" xmlns:xlink="http://www.w3.org/1999/xlink">
    <!-- Generator: Sketch 47.1 (45422) - http://www.bohemiancoding.com/sketch -->
    <title>Group 31</title>
    <desc>Created with Sketch.</desc>
    <defs>
        <linearGradient x1="0.00575871005%" y1="50.0037415%" x2="99.9884826%" y2="50.0037415%" id="linearGradient-1">
            <stop stop-color="#003F7D" offset="0%"></stop>
            <stop stop-color="#00A1AE" offset="100%"></stop>
        </linearGradient>
    </defs>
    <g id="Page-1" stroke="none" stroke-width="1" fill="none" fill-rule="evenodd">
        <g id="Home" transform="translate(-1033.000000, -278.000000)" fill-rule="nonzero" fill="url(#linearGradient-1)">
            <g id="Group-6" transform="translate(756.000000, 249.000000)">
                <g id="Group-4" transform="translate(184.000000, 0.000000)">
                    <g id="Group-31" transform="translate(93.000000, 29.000000)">
                        <g id="Group-20">
                            <g id="list">
                                <path d="M53.0779355,10.8406667 L42.6286452,0.343 C42.4184516,0.130666667 42.128129,0 41.8064516,0 L5.80645161,0 C2.60477419,0 0,2.61683333 0,5.83333333 L0,64.1666667 C0,67.3831667 2.60477419,70 5.80645161,70 L47.6129032,70 C50.8145806,70 53.4193548,67.3831667 53.4193548,64.1666667 L53.4193548,11.6666667 C53.4193548,11.3435 53.2892903,11.0518333 53.0779355,10.8406667 Z M42.9677419,3.983 L49.4547097,10.5 L42.9677419,10.5 L42.9677419,3.983 Z M51.0967742,64.1666667 C51.0967742,66.0963333 49.5336774,67.6666667 47.6129032,67.6666667 L5.80645161,67.6666667 C3.88567742,67.6666667 2.32258065,66.0963333 2.32258065,64.1666667 L2.32258065,5.83333333 C2.32258065,3.90366667 3.88567742,2.33333333 5.80645161,2.33333333 L40.6451613,2.33333333 L40.6451613,11.6666667 C40.6451613,12.3118333 41.1654194,12.8333333 41.8064516,12.8333333 L51.0967742,12.8333333 L51.0967742,64.1666667 Z" id="Shape"></path>
                                <path d="M10.4516129,16.3333333 C7.88980645,16.3333333 5.80645161,18.4263333 5.80645161,21 C5.80645161,23.5736667 7.88980645,25.6666667 10.4516129,25.6666667 C13.0134194,25.6666667 15.0967742,23.5736667 15.0967742,21 C15.0967742,18.4263333 13.0134194,16.3333333 10.4516129,16.3333333 Z M10.4516129,23.3333333 C9.17070968,23.3333333 8.12903226,22.2868333 8.12903226,21 C8.12903226,19.7131667 9.17070968,18.6666667 10.4516129,18.6666667 C11.7325161,18.6666667 12.7741935,19.7131667 12.7741935,21 C12.7741935,22.2868333 11.7325161,23.3333333 10.4516129,23.3333333 Z" id="Shape"></path>
                                <path d="M10.4516129,29.1666667 C7.88980645,29.1666667 5.80645161,31.2596667 5.80645161,33.8333333 C5.80645161,36.407 7.88980645,38.5 10.4516129,38.5 C13.0134194,38.5 15.0967742,36.407 15.0967742,33.8333333 C15.0967742,31.2596667 13.0134194,29.1666667 10.4516129,29.1666667 Z M10.4516129,36.1666667 C9.17070968,36.1666667 8.12903226,35.1201667 8.12903226,33.8333333 C8.12903226,32.5465 9.17070968,31.5 10.4516129,31.5 C11.7325161,31.5 12.7741935,32.5465 12.7741935,33.8333333 C12.7741935,35.1201667 11.7325161,36.1666667 10.4516129,36.1666667 Z" id="Shape"></path>
                                <path d="M10.4516129,42 C7.88980645,42 5.80645161,44.093 5.80645161,46.6666667 C5.80645161,49.2403333 7.88980645,51.3333333 10.4516129,51.3333333 C13.0134194,51.3333333 15.0967742,49.2403333 15.0967742,46.6666667 C15.0967742,44.093 13.0134194,42 10.4516129,42 Z M10.4516129,49 C9.17070968,49 8.12903226,47.9535 8.12903226,46.6666667 C8.12903226,45.3798333 9.17070968,44.3333333 10.4516129,44.3333333 C11.7325161,44.3333333 12.7741935,45.3798333 12.7741935,46.6666667 C12.7741935,47.9535 11.7325161,49 10.4516129,49 Z" id="Shape"></path>
                                <path d="M10.4516129,54.8333333 C7.88980645,54.8333333 5.80645161,56.9263333 5.80645161,59.5 C5.80645161,62.0736667 7.88980645,64.1666667 10.4516129,64.1666667 C13.0134194,64.1666667 15.0967742,62.0736667 15.0967742,59.5 C15.0967742,56.9263333 13.0134194,54.8333333 10.4516129,54.8333333 Z M10.4516129,61.8333333 C9.17070968,61.8333333 8.12903226,60.7868333 8.12903226,59.5 C8.12903226,58.2131667 9.17070968,57.1666667 10.4516129,57.1666667 C11.7325161,57.1666667 12.7741935,58.2131667 12.7741935,59.5 C12.7741935,60.7868333 11.7325161,61.8333333 10.4516129,61.8333333 Z" id="Shape"></path>
                                <rect id="Rectangle-path" x="17.4193548" y="22.1666667" width="30.1935484" height="2.33333333"></rect>
                                <rect id="Rectangle-path" x="18.5806452" y="5.83333333" width="16.2580645" height="2.33333333"></rect>
                                <rect id="Rectangle-path" x="15.0967742" y="10.5" width="23.2258065" height="2.33333333"></rect>
                                <rect id="Rectangle-path" x="17.4193548" y="35" width="30.1935484" height="2.33333333"></rect>
                                <rect id="Rectangle-path" x="17.4193548" y="47.8333333" width="30.1935484" height="2.33333333"></rect>
                                <rect id="Rectangle-path" x="17.4193548" y="60.6666667" width="30.1935484" height="2.33333333"></rect>
                                <rect id="Rectangle-path" x="26.7096774" y="17.5" width="2.32258065" height="2.33333333"></rect>
                                <rect id="Rectangle-path" x="22.0645161" y="17.5" width="2.32258065" height="2.33333333"></rect>
                                <rect id="Rectangle-path" x="17.4193548" y="17.5" width="2.32258065" height="2.33333333"></rect>
                            </g>
                        </g>
                    </g>
                </g>
            </g>
        </g>
    </g>
</svg>