<?xml version="1.0" encoding="UTF-8"?>
<svg width="75px" height="70px" viewBox="0 0 75 70" version="1.1" xmlns="http://www.w3.org/2000/svg" xmlns:xlink="http://www.w3.org/1999/xlink">
    <!-- Generator: Sketch 47.1 (45422) - http://www.bohemiancoding.com/sketch -->
    <title>Group 35</title>
    <desc>Created with Sketch.</desc>
    <defs>
        <linearGradient x1="0.00575871005%" y1="50.0037415%" x2="99.9884826%" y2="50.0037415%" id="linearGradient-1">
            <stop stop-color="#003F7D" offset="0%"></stop>
            <stop stop-color="#00A1AE" offset="100%"></stop>
        </linearGradient>
    </defs>
    <g id="Page-1" stroke="none" stroke-width="1" fill="none" fill-rule="evenodd">
        <g id="Home" transform="translate(-1023.000000, -491.000000)" fill-rule="nonzero" fill="url(#linearGradient-1)">
            <g id="Group-6" transform="translate(756.000000, 249.000000)">
                <g id="Group-5" transform="translate(185.000000, 212.000000)">
                    <g id="Group-35" transform="translate(82.000000, 30.000000)">
                        <g id="Group-21">
                            <g id="mortarboard">
                                <path d="M52.7877615,62.5296234 C52.1179289,62.3596025 51.4394561,62.7694979 51.2732427,63.438159 L50.0236402,68.4367155 C49.8549372,69.1077197 50.2635146,69.7850209 50.9333473,69.9525523 C51.0345397,69.9787657 51.1370502,69.9900418 51.2370711,69.9900418 C51.7969247,69.9900418 52.305523,69.6113389 52.4480126,69.0440167 L53.6976151,64.0454603 C53.865,63.3756276 53.4575941,62.6971548 52.7877615,62.5296234 Z" id="Shape"></path>
                                <path d="M37.4895397,37.499205 C37.6519456,37.499205 37.8144979,37.4680126 37.9669456,37.4043096 L51.713159,31.7158577 C52.3504812,31.452113 52.652887,30.7210669 52.3892887,30.0837448 C52.1255439,29.4451046 51.3920084,29.1451883 50.7560042,29.4064435 L37.4895397,34.8973431 L2.49935146,20.4189121 L2.49935146,20.0040377 C2.49935146,19.3142887 1.93949791,18.7544351 1.24974895,18.7544351 C0.56,18.7544351 0,19.3142887 0,20.0040377 L0,21.2536402 C0,21.759749 0.304895397,22.2159205 0.772343096,22.4083473 L37.0122803,37.4041632 C37.1645816,37.4678661 37.3271339,37.499205 37.4895397,37.499205 Z" id="Shape"></path>
                                <path d="M52.3554603,50.3018828 C52.0505649,49.6833054 51.3032636,49.4283473 50.6821967,49.7345607 C48.3090795,50.9080126 44.3451464,52.2725732 38.7392887,52.4588494 L38.7392887,41.248159 C38.7392887,40.55841 38.1794351,39.9985565 37.4896862,39.9985565 C36.7999372,39.9985565 36.2400837,40.55841 36.2400837,41.248159 L36.2400837,52.4475732 C20.7232218,51.9527406 15.7158787,42.5528243 14.9959623,40.9882218 L14.9959623,32.5006485 C14.9959623,31.8108996 14.4361088,31.251046 13.7463598,31.251046 C13.0566109,31.251046 12.4967573,31.8108996 12.4967573,32.5006485 L12.4967573,41.248159 C12.4967573,41.4069038 12.5267782,41.5643305 12.5855021,41.7129707 C12.8029707,42.2540795 18.1215063,54.9942259 37.4898326,54.9942259 C44.2591841,54.9942259 49.0029289,53.3521548 51.7896025,51.975 C52.4090586,51.6689331 52.6628452,50.9204603 52.3554603,50.3018828 Z" id="Shape"></path>
                                <path d="M56.2343096,63.7418828 C55.5432427,63.7418828 54.9847071,64.3017364 54.9847071,64.9914854 L54.9847071,68.7404393 C54.9847071,69.4301883 55.5432427,69.9900418 56.2343096,69.9900418 C56.9253766,69.9900418 57.4839121,69.4301883 57.4839121,68.7404393 L57.4839121,64.9914854 C57.4839121,64.3017364 56.9253766,63.7418828 56.2343096,63.7418828 Z" id="Shape"></path>
                                <path d="M73.729477,18.7544351 C73.03841,18.7544351 72.4798745,19.3142887 72.4798745,20.0040377 L72.4798745,20.4164226 L57.4840586,26.588431 L57.4840586,24.330272 L74.2068828,17.4096444 C74.6741841,17.2172176 74.9792259,16.761046 74.9792259,16.2549372 C74.9792259,15.7488285 74.6743305,15.2939749 74.2082008,15.1002301 L37.9669456,0.104560669 C37.6607322,-0.0216736402 37.3183473,-0.0216736402 37.0122803,0.104560669 L0.772343096,15.1003766 C0.304895397,15.2941213 0,15.7489749 0,16.2550837 C0,16.7611925 0.304895397,17.217364 0.772343096,17.4097908 L37.0122803,32.4056067 C37.164728,32.4693096 37.3271339,32.5006485 37.4896862,32.5006485 C37.6522385,32.5006485 37.8146444,32.4694561 37.9670921,32.4056067 L51.0710042,26.9833891 C51.7096444,26.7209623 52.0120502,25.9899163 51.7483054,25.3512762 C51.4845607,24.713954 50.7535146,24.4127197 50.1161925,24.6751464 L37.4895397,29.8987866 L4.51748954,16.2550837 L37.4895397,2.61138075 L70.46159,16.2550837 L56.1143724,22.1921967 L42.3719665,17.0611088 C42.4444561,16.8011715 42.4882427,16.5337657 42.4882427,16.2550837 C42.4882427,14.1531799 40.2926151,12.5061297 37.4896862,12.5061297 C34.6867573,12.5061297 32.4911297,14.1531799 32.4911297,16.2550837 C32.4911297,18.3569874 34.6867573,20.0040377 37.4896862,20.0040377 C38.7406067,20.0040377 39.8565063,19.6628243 40.7237448,19.1130753 L54.9847071,24.4379079 L54.9847071,28.4418201 L54.9847071,28.4431381 L54.9847071,55.2244351 C53.5338912,55.7429916 52.4853556,57.1163389 52.4853556,58.7434728 C52.4853556,60.8103766 54.1674059,62.4924268 56.2343096,62.4924268 C58.3012134,62.4924268 59.9832636,60.8103766 59.9832636,58.7434728 C59.9832636,57.1164854 58.9348745,55.7431381 57.4839121,55.2244351 L57.4839121,48.1314435 C61.0716318,45.42341 62.3575523,41.8169456 62.4137866,41.6570293 C62.4587448,41.5258159 62.4824686,41.3871339 62.4824686,41.2484519 L62.4824686,32.5009414 C62.4824686,31.8111925 61.9239331,31.2513389 61.2328661,31.2513389 C60.5417992,31.2513389 59.9832636,31.8111925 59.9832636,32.5009414 L59.9832636,41.017364 C59.767113,41.5471967 59.0160042,43.1804812 57.4839121,44.7925314 L57.4839121,29.2914854 L74.2055649,22.4096653 C74.6741841,22.2172385 74.9790795,21.7598954 74.9790795,21.2537866 L74.9790795,20.0041841 C74.9790795,19.3142887 74.4205439,18.7544351 73.729477,18.7544351 Z M37.4895397,17.5046862 C35.9637448,17.5046862 34.9901883,16.7648536 34.9901883,16.2550837 C34.9901883,15.7451674 35.9635983,15.0054812 37.4895397,15.0054812 C39.0154812,15.0054812 39.9888912,15.7453138 39.9888912,16.2550837 C39.9888912,16.765 39.0153347,17.5046862 37.4895397,17.5046862 Z M56.2343096,59.9929289 C55.5445607,59.9929289 54.9847071,59.4319038 54.9847071,58.7433264 C54.9847071,58.054749 55.5445607,57.4937238 56.2343096,57.4937238 C56.9240586,57.4937238 57.4839121,58.054749 57.4839121,58.7433264 C57.4839121,59.4317573 56.9240586,59.9929289 56.2343096,59.9929289 Z" id="Shape"></path>
                                <path d="M61.1953766,63.438159 C61.0279916,62.7696444 60.3480544,62.3609205 59.6808577,62.5296234 C59.0110251,62.6970084 58.6036192,63.3756276 58.7711506,64.0454603 L60.0207531,69.0440167 C60.1632427,69.6113389 60.671841,69.9900418 61.2316946,69.9900418 C61.3317155,69.9900418 61.4340795,69.9787657 61.5354184,69.9525523 C62.205251,69.7851674 62.6126569,69.1077197 62.4451255,68.4367155 L61.1953766,63.438159 Z" id="Shape"></path>
                            </g>
                        </g>
                    </g>
                </g>
            </g>
        </g>
    </g>
</svg>