<?xml version="1.0" encoding="UTF-8"?>
<svg width="70px" height="70px" viewBox="0 0 70 70" version="1.1" xmlns="http://www.w3.org/2000/svg" xmlns:xlink="http://www.w3.org/1999/xlink">
    <!-- Generator: Sketch 47.1 (45422) - http://www.bohemiancoding.com/sketch -->
    <title>Group 36</title>
    <desc>Created with Sketch.</desc>
    <defs>
        <linearGradient x1="0.00575871005%" y1="50.0037415%" x2="99.9884826%" y2="50.0037415%" id="linearGradient-1">
            <stop stop-color="#003F7D" offset="0%"></stop>
            <stop stop-color="#00A1AE" offset="100%"></stop>
        </linearGradient>
    </defs>
    <g id="Page-1" stroke="none" stroke-width="1" fill="none" fill-rule="evenodd">
        <g id="Home" transform="translate(-1209.000000, -597.000000)" fill-rule="nonzero" fill="url(#linearGradient-1)">
            <g id="Group-6" transform="translate(756.000000, 249.000000)">
                <g id="Group-5" transform="translate(369.000000, 318.000000)">
                    <g id="Group-36" transform="translate(84.000000, 30.000000)">
                        <g id="Group-22">
                            <g id="bitcoin-2">
                                <path d="M43.943662,28.1695775 C43.943662,26.3059155 42.4270423,24.7892958 40.5633803,24.7892958 L25.915493,24.7892958 L25.915493,31.5498592 L40.5633803,31.5498592 C42.4270423,31.5498592 43.943662,30.0332394 43.943662,28.1695775 Z M40.5633803,29.296338 L28.1690141,29.296338 L28.1690141,27.0428169 L40.5633803,27.0428169 C41.1842254,27.0428169 41.6901408,27.5476056 41.6901408,28.1695775 C41.6901408,28.7915493 41.1842254,29.296338 40.5633803,29.296338 Z" id="Shape"></path>
                                <path d="M25.915493,45.0709859 L40.5633803,45.0709859 C42.4270423,45.0709859 43.943662,43.5543662 43.943662,41.6907042 C43.943662,39.8270423 42.4270423,38.3104225 40.5633803,38.3104225 L25.915493,38.3104225 L25.915493,45.0709859 Z M28.1690141,40.5639437 L40.5633803,40.5639437 C41.1842254,40.5639437 41.6901408,41.0687324 41.6901408,41.6907042 C41.6901408,42.3126761 41.1842254,42.8174648 40.5633803,42.8174648 L28.1690141,42.8174648 L28.1690141,40.5639437 Z" id="Shape"></path>
                                <path d="M40.5633803,6.55380282 L40.5633803,22.5357746 L41.6901408,22.5357746 C43.2935211,22.5357746 44.7774648,23.2039437 45.8659155,24.4152113 L46.2016901,24.7892958 L54.4608451,24.7892958 L59.7183099,20.8456338 L59.7183099,16.2416901 L62.4383099,13.5216901 L63.3059155,13.5216901 C63.7723944,14.8298592 65.011831,15.7752113 66.4788732,15.7752113 C68.3425352,15.7752113 69.8591549,14.2585915 69.8591549,12.3949296 C69.8591549,10.5312676 68.3425352,9.01464789 66.4788732,9.01464789 C65.011831,9.01464789 63.7723944,9.96 63.3059155,11.268169 L61.5053521,11.268169 L57.4647887,15.3087324 L57.4647887,19.7188732 L53.7092958,22.5357746 L47.1842254,22.5357746 C45.9853521,21.3639437 44.4529577,20.6056338 42.8180282,20.364507 L42.8180282,6.55380282 C44.1250704,6.08732394 45.0704225,4.84788732 45.0704225,3.38084507 C45.0704225,1.5171831 43.5538028,0.000563380282 41.6901408,0.000563380282 C39.8264789,0.000563380282 38.3098592,1.5171831 38.3098592,3.38084507 C38.3098592,4.84788732 39.2552113,6.08732394 40.5633803,6.55380282 Z M66.4788732,11.268169 C67.0997183,11.268169 67.6056338,11.7729577 67.6056338,12.3949296 C67.6056338,13.0169014 67.0997183,13.5216901 66.4788732,13.5216901 C65.8580282,13.5216901 65.3521127,13.0169014 65.3521127,12.3949296 C65.3521127,11.7729577 65.8580282,11.268169 66.4788732,11.268169 Z M41.6901408,2.25408451 C42.3109859,2.25408451 42.8169014,2.75887324 42.8169014,3.38084507 C42.8169014,4.0028169 42.3109859,4.50760563 41.6901408,4.50760563 C41.0692958,4.50760563 40.5633803,4.0028169 40.5633803,3.38084507 C40.5633803,2.75887324 41.0692958,2.25408451 41.6901408,2.25408451 Z" id="Shape"></path>
                                <path d="M12.3943662,6.76112676 C13.8614085,6.76112676 15.1008451,5.81577465 15.5673239,4.50760563 L18.7797183,4.50760563 L22.5352113,7.32450704 L22.5352113,11.8315493 L27.0422535,15.211831 L27.0422535,22.5357746 L38.3098592,22.5357746 L38.3098592,12.9583099 L33.8028169,9.57802817 L33.8028169,6.55380282 C35.1109859,6.08732394 36.056338,4.84788732 36.056338,3.38084507 C36.056338,1.5171831 34.5397183,0.000563380282 32.6760563,0.000563380282 C30.8123944,0.000563380282 29.2957746,1.5171831 29.2957746,3.38084507 C29.2957746,4.84788732 30.2411268,6.08732394 31.5492958,6.55380282 L31.5492958,10.7047887 L36.056338,14.0850704 L36.056338,20.2822535 L29.2957746,20.2822535 L29.2957746,14.0850704 L24.7887324,10.7047887 L24.7887324,6.19774648 L19.5301408,2.25408451 L15.5661972,2.25408451 C15.1008451,0.945915493 13.8614085,0.000563380282 12.3943662,0.000563380282 C10.5307042,0.000563380282 9.01408451,1.5171831 9.01408451,3.38084507 C9.01408451,5.24450704 10.5307042,6.76112676 12.3943662,6.76112676 Z M32.6760563,4.50760563 C32.0552113,4.50760563 31.5492958,4.0028169 31.5492958,3.38084507 C31.5492958,2.75887324 32.0552113,2.25408451 32.6760563,2.25408451 C33.2969014,2.25408451 33.8028169,2.75887324 33.8028169,3.38084507 C33.8028169,4.0028169 33.2969014,4.50760563 32.6760563,4.50760563 Z M12.3943662,2.25408451 C13.0152113,2.25408451 13.5211268,2.75887324 13.5211268,3.38084507 C13.5211268,4.0028169 13.0152113,4.50760563 12.3943662,4.50760563 C11.7735211,4.50760563 11.2676056,4.0028169 11.2676056,3.38084507 C11.2676056,2.75887324 11.7735211,2.25408451 12.3943662,2.25408451 Z" id="Shape"></path>
                                <path d="M3.38028169,16.9019718 C4.84732394,16.9019718 6.08676056,15.9566197 6.55323944,14.6484507 L18.7797183,14.6484507 L22.5352113,17.4653521 L22.5352113,20.2822535 L20.2816901,20.2822535 L20.2816901,38.3104225 L22.5352113,38.3104225 L22.5352113,22.5357746 L24.7887324,22.5357746 L24.7887324,16.3385915 L19.5301408,12.3949296 L6.55323944,12.3949296 C6.08676056,11.0867606 4.84732394,10.1414085 3.38028169,10.1414085 C1.51661972,10.1414085 0,11.6580282 0,13.5216901 C0,15.3853521 1.51661972,16.9019718 3.38028169,16.9019718 Z M3.38028169,12.3949296 C4.00112676,12.3949296 4.50704225,12.8997183 4.50704225,13.5216901 C4.50704225,14.143662 4.00112676,14.6484507 3.38028169,14.6484507 C2.75943662,14.6484507 2.25352113,14.143662 2.25352113,13.5216901 C2.25352113,12.8997183 2.75943662,12.3949296 3.38028169,12.3949296 Z" id="Shape"></path>
                                <path d="M57.4647887,63.0991549 C55.9977465,63.0991549 54.7583099,64.044507 54.291831,65.3526761 L42.0653521,65.3526761 L38.3098592,62.5357746 L38.3098592,47.324507 L27.0422535,47.324507 L27.0422535,63.3064789 C25.7340845,63.7729577 24.7887324,65.0123944 24.7887324,66.4794366 C24.7887324,68.3430986 26.3053521,69.8597183 28.1690141,69.8597183 C30.0326761,69.8597183 31.5492958,68.3430986 31.5492958,66.4794366 C31.5492958,65.0123944 30.6039437,63.7729577 29.2957746,63.3064789 L29.2957746,49.5780282 L36.056338,49.5780282 L36.056338,63.6625352 L41.3149296,67.6061972 L54.2929577,67.6061972 C54.7594366,68.9143662 55.9988732,69.8597183 57.4659155,69.8597183 C59.3295775,69.8597183 60.8461972,68.3430986 60.8461972,66.4794366 C60.8461972,64.6157746 59.3284507,63.0991549 57.4647887,63.0991549 Z M28.1690141,67.6061972 C27.548169,67.6061972 27.0422535,67.1014085 27.0422535,66.4794366 C27.0422535,65.8574648 27.548169,65.3526761 28.1690141,65.3526761 C28.7898592,65.3526761 29.2957746,65.8574648 29.2957746,66.4794366 C29.2957746,67.1014085 28.7898592,67.6061972 28.1690141,67.6061972 Z M57.4647887,67.6061972 C56.8439437,67.6061972 56.3380282,67.1014085 56.3380282,66.4794366 C56.3380282,65.8574648 56.8439437,65.3526761 57.4647887,65.3526761 C58.0856338,65.3526761 58.5915493,65.8574648 58.5915493,66.4794366 C58.5915493,67.1014085 58.0856338,67.6061972 57.4647887,67.6061972 Z" id="Shape"></path>
                                <path d="M24.7887324,47.324507 L22.5352113,47.324507 L22.5352113,40.5639437 L12.1870423,40.5639437 C11.7205634,39.2557746 10.4811268,38.3104225 9.01408451,38.3104225 C7.15042254,38.3104225 5.63380282,39.8270423 5.63380282,41.6907042 C5.63380282,43.5543662 7.15042254,45.0709859 9.01408451,45.0709859 C10.4811268,45.0709859 11.7205634,44.1256338 12.1870423,42.8174648 L20.2816901,42.8174648 L20.2816901,49.5780282 L22.5352113,49.5780282 L22.5352113,55.7752113 L18.7797183,58.5921127 L6.55323944,58.5921127 C6.08676056,57.2839437 4.84732394,56.3385915 3.38028169,56.3385915 C1.51661972,56.3385915 0,57.8552113 0,59.7188732 C0,61.5825352 1.51661972,63.0991549 3.38028169,63.0991549 C4.84732394,63.0991549 6.08676056,62.1538028 6.55323944,60.8456338 L19.5312676,60.8456338 L24.7887324,56.9019718 L24.7887324,47.324507 Z M9.01408451,42.8174648 C8.39323944,42.8174648 7.88732394,42.3126761 7.88732394,41.6907042 C7.88732394,41.0687324 8.39323944,40.5639437 9.01408451,40.5639437 C9.63492958,40.5639437 10.1408451,41.0687324 10.1408451,41.6907042 C10.1408451,42.3126761 9.63492958,42.8174648 9.01408451,42.8174648 Z M3.38028169,60.8456338 C2.75943662,60.8456338 2.25352113,60.3408451 2.25352113,59.7188732 C2.25352113,59.0969014 2.75943662,58.5921127 3.38028169,58.5921127 C4.00112676,58.5921127 4.50704225,59.0969014 4.50704225,59.7188732 C4.50704225,60.3408451 4.00112676,60.8456338 3.38028169,60.8456338 Z" id="Shape"></path>
                                <path d="M67.6056338,63.3064789 L67.6056338,59.155493 L62.3470423,55.211831 L46.5723944,55.211831 L42.8169014,52.3949296 L42.8169014,49.4980282 C46.6343662,48.9504225 49.5774648,45.6580282 49.5774648,41.6907042 C49.5774648,38.8253521 48.0416901,36.3115493 45.7498592,34.9301408 C47.7352113,33.7335211 49.1538028,31.6861972 49.4974648,29.296338 L63.3070423,29.296338 C63.7735211,30.604507 65.0129577,31.5498592 66.48,31.5498592 C68.343662,31.5498592 69.8602817,30.0332394 69.8602817,28.1695775 C69.8602817,26.3059155 68.343662,24.7892958 66.48,24.7892958 C65.0129577,24.7892958 63.7735211,25.7346479 63.3070423,27.0428169 L47.3239437,27.0428169 L47.3239437,28.1695775 C47.3239437,31.2760563 44.7966197,33.8033803 41.6901408,33.8033803 L41.6901408,36.0569014 C44.7966197,36.0569014 47.3239437,38.5842254 47.3239437,41.6907042 C47.3239437,44.7971831 44.7966197,47.324507 41.6901408,47.324507 L40.5633803,47.324507 L40.5633803,53.5216901 L45.8219718,57.4653521 L61.5966197,57.4653521 L65.3521127,60.2822535 L65.3521127,63.3064789 C64.0439437,63.7729577 63.0985915,65.0123944 63.0985915,66.4794366 C63.0985915,68.3430986 64.6152113,69.8597183 66.4788732,69.8597183 C68.3425352,69.8597183 69.8591549,68.3430986 69.8591549,66.4794366 C69.8591549,65.0123944 68.9138028,63.7729577 67.6056338,63.3064789 Z M66.4788732,27.0428169 C67.0997183,27.0428169 67.6056338,27.5476056 67.6056338,28.1695775 C67.6056338,28.7915493 67.0997183,29.296338 66.4788732,29.296338 C65.8580282,29.296338 65.3521127,28.7915493 65.3521127,28.1695775 C65.3521127,27.5476056 65.8580282,27.0428169 66.4788732,27.0428169 Z M66.4788732,67.6061972 C65.8580282,67.6061972 65.3521127,67.1014085 65.3521127,66.4794366 C65.3521127,65.8574648 65.8580282,65.3526761 66.4788732,65.3526761 C67.0997183,65.3526761 67.6056338,65.8574648 67.6056338,66.4794366 C67.6056338,67.1014085 67.0997183,67.6061972 66.4788732,67.6061972 Z" id="Shape"></path>
                            </g>
                        </g>
                    </g>
                </g>
            </g>
        </g>
    </g>
</svg>