<?xml version="1.0" encoding="UTF-8"?>
<svg width="115px" height="150px" viewBox="0 0 115 150" version="1.1" xmlns="http://www.w3.org/2000/svg" xmlns:xlink="http://www.w3.org/1999/xlink">
    <!-- Generator: Sketch 47.1 (45422) - http://www.bohemiancoding.com/sketch -->
    <title>Group 40</title>
    <desc>Created with Sketch.</desc>
    <defs>
        <linearGradient x1="0.00575871005%" y1="50.0037415%" x2="99.9884826%" y2="50.0037415%" id="linearGradient-1">
            <stop stop-color="#003F7D" offset="0%"></stop>
            <stop stop-color="#00A1AE" offset="100%"></stop>
        </linearGradient>
    </defs>
    <g id="Page-1" stroke="none" stroke-width="1" fill="none" fill-rule="evenodd">
        <g id="Home" transform="translate(-1004.000000, -2175.000000)" fill-rule="nonzero" fill="url(#linearGradient-1)">
            <g id="Group-40" transform="translate(1004.000000, 2175.000000)">
                <g id="list">
                    <path d="M114.139227,23.23 L91.6689873,0.735 C91.2169854,0.28 90.5926734,0 89.9009356,0 L12.4862411,0 C5.60132774,0 0,5.6075 0,12.5 L0,137.5 C0,144.3925 5.60132774,150 12.4862411,150 L102.387177,150 C109.27209,150 114.873418,144.3925 114.873418,137.5 L114.873418,25 C114.873418,24.3075 114.593726,23.6825 114.139227,23.23 Z M92.3981838,8.535 L106.347812,22.5 L92.3981838,22.5 L92.3981838,8.535 Z M109.878921,137.5 C109.878921,141.635 106.517625,145 102.387177,145 L12.4862411,145 C8.35579252,145 4.99449642,141.635 4.99449642,137.5 L4.99449642,12.5 C4.99449642,8.365 8.35579252,5 12.4862411,5 L87.4036874,5 L87.4036874,25 C87.4036874,26.3825 88.5224546,27.5 89.9009356,27.5 L109.878921,27.5 L109.878921,137.5 Z" id="Shape"></path>
                    <path d="M22.3101266,35.1265823 C16.8125791,35.1265823 12.3417722,39.5973892 12.3417722,45.0949367 C12.3417722,50.5924842 16.8125791,55.0632911 22.3101266,55.0632911 C27.8076741,55.0632911 32.278481,50.5924842 32.278481,45.0949367 C32.278481,39.5973892 27.8076741,35.1265823 22.3101266,35.1265823 Z M22.3101266,50.0791139 C19.5613528,50.0791139 17.3259494,47.8437104 17.3259494,45.0949367 C17.3259494,42.346163 19.5613528,40.1107595 22.3101266,40.1107595 C25.0589003,40.1107595 27.2943038,42.346163 27.2943038,45.0949367 C27.2943038,47.8437104 25.0589003,50.0791139 22.3101266,50.0791139 Z" id="Shape"></path>
                    <path d="M22.3101266,62.6582278 C16.8125791,62.6582278 12.3417722,67.1290348 12.3417722,72.6265823 C12.3417722,78.1241297 16.8125791,82.5949367 22.3101266,82.5949367 C27.8076741,82.5949367 32.278481,78.1241297 32.278481,72.6265823 C32.278481,67.1290348 27.8076741,62.6582278 22.3101266,62.6582278 Z M22.3101266,77.6107595 C19.5613528,77.6107595 17.3259494,75.375356 17.3259494,72.6265823 C17.3259494,69.8778085 19.5613528,67.6424051 22.3101266,67.6424051 C25.0589003,67.6424051 27.2943038,69.8778085 27.2943038,72.6265823 C27.2943038,75.375356 25.0589003,77.6107595 22.3101266,77.6107595 Z" id="Shape"></path>
                    <path d="M22.3101266,90.1898734 C16.8125791,90.1898734 12.3417722,94.6606804 12.3417722,100.158228 C12.3417722,105.655775 16.8125791,110.126582 22.3101266,110.126582 C27.8076741,110.126582 32.278481,105.655775 32.278481,100.158228 C32.278481,94.6606804 27.8076741,90.1898734 22.3101266,90.1898734 Z M22.3101266,105.142405 C19.5613528,105.142405 17.3259494,102.907002 17.3259494,100.158228 C17.3259494,97.4094541 19.5613528,95.1740506 22.3101266,95.1740506 C25.0589003,95.1740506 27.2943038,97.4094541 27.2943038,100.158228 C27.2943038,102.907002 25.0589003,105.142405 22.3101266,105.142405 Z" id="Shape"></path>
                    <path d="M22.3101266,117.721519 C16.8125791,117.721519 12.3417722,122.192326 12.3417722,127.689873 C12.3417722,133.187421 16.8125791,137.658228 22.3101266,137.658228 C27.8076741,137.658228 32.278481,133.187421 32.278481,127.689873 C32.278481,122.192326 27.8076741,117.721519 22.3101266,117.721519 Z M22.3101266,132.674051 C19.5613528,132.674051 17.3259494,130.438647 17.3259494,127.689873 C17.3259494,124.9411 19.5613528,122.705696 22.3101266,122.705696 C25.0589003,122.705696 27.2943038,124.9411 27.2943038,127.689873 C27.2943038,130.438647 25.0589003,132.674051 22.3101266,132.674051 Z" id="Shape"></path>
                    <rect id="Rectangle-path" x="37.0253165" y="47.4683544" width="64.556962" height="4.74683544"></rect>
                    <rect id="Rectangle-path" x="39.8734177" y="12.3417722" width="35.1265823" height="4.74683544"></rect>
                    <rect id="Rectangle-path" x="32.278481" y="22.7848101" width="49.3670886" height="4.74683544"></rect>
                    <rect id="Rectangle-path" x="37.0253165" y="75" width="64.556962" height="4.74683544"></rect>
                    <rect id="Rectangle-path" x="37.0253165" y="102.531646" width="64.556962" height="4.74683544"></rect>
                    <rect id="Rectangle-path" x="37.0253165" y="130.063291" width="64.556962" height="4.74683544"></rect>
                    <rect id="Rectangle-path" x="56.9620253" y="37.0253165" width="4.74683544" height="4.74683544"></rect>
                    <rect id="Rectangle-path" x="47.4683544" y="37.0253165" width="4.74683544" height="4.74683544"></rect>
                    <rect id="Rectangle-path" x="37.0253165" y="37.0253165" width="4.74683544" height="4.74683544"></rect>
                </g>
            </g>
        </g>
    </g>
</svg>