<?xml version="1.0" encoding="UTF-8"?>
<svg width="59px" height="50px" viewBox="0 0 59 50" version="1.1" xmlns="http://www.w3.org/2000/svg" xmlns:xlink="http://www.w3.org/1999/xlink">
    <!-- Generator: Sketch 47.1 (45422) - http://www.bohemiancoding.com/sketch -->
    <title>Group 37</title>
    <desc>Created with Sketch.</desc>
    <defs></defs>
    <g id="Page-1" stroke="none" stroke-width="1" fill="none" fill-rule="evenodd">
        <g id="Home" transform="translate(-1324.000000, -50.000000)">
            <g id="Group-37" transform="translate(1326.000000, 51.000000)">
                <g id="Group-18">
                    <polygon id="Path" stroke="#FFFFFF" stroke-width="2" points="13.8265576 47.9000015 0 23.9500008 13.8265576 0 41.4796727 0 55.3062303 23.9500008 41.4796727 47.9000015"></polygon>
                    <path d="M27.6249771,30.4531287 C27.2812279,30.4531287 26.99477,30.3385454 26.7656041,30.1093795 C26.5364382,29.8802136 26.4218549,29.5937557 26.4218549,29.2500066 L26.4218549,26.5000131 C26.4218549,26.1562639 26.5364382,25.8698061 26.7656041,25.6406402 C26.99477,25.4114743 27.2812279,25.296891 27.6249771,25.296891 C27.9687262,25.296891 28.2551841,25.4114743 28.48435,25.6406402 C28.7135159,25.8698061 28.8280992,26.1562639 28.8280992,26.5000131 L28.8280992,29.2500066 C28.8280992,29.5937557 28.7135159,29.8802136 28.48435,30.1093795 C28.2551841,30.3385454 27.9687262,30.4531287 27.6249771,30.4531287 Z M37.25,23.0625213 L37.25,32.6874984 C37.25,33.2604134 37.0494789,33.7473919 36.6484375,34.1484324 C36.2473961,34.5494729 35.7604164,34.7499934 35.1875,34.7499934 L20.0625,34.7499934 C19.4895836,34.7499934 19.0026039,34.5494729 18.6015625,34.1484324 C18.2005211,33.7473919 18,33.2604134 18,32.6874984 L18,23.0625213 C18,22.4896062 18.2005211,22.0026278 18.6015625,21.6015873 C19.0026039,21.2005468 19.4895836,21.0000262 20.0625,21.0000262 L21.4375,21.0000262 L21.4375,18.9375311 C21.4375,17.8203463 21.7167969,16.7890988 22.2753906,15.8437885 C22.8339844,14.8984783 23.5859375,14.1465269 24.53125,13.5879345 C25.4765625,13.0293421 26.5078125,12.7500459 27.625,12.7500459 C28.7421875,12.7500459 29.7734375,13.0293421 30.71875,13.5879345 C31.6640625,14.1465269 32.4160156,14.9056399 32.9746094,15.8652728 C33.5332031,16.8249058 33.8125,17.863315 33.8125,18.9804998 L33.8125,21.0000262 L35.1875,21.0000262 C35.7604164,21.0000262 36.2473961,21.2005468 36.6484375,21.6015873 C37.0494789,22.0026278 37.25,22.4896062 37.25,23.0625213 Z M23.4999869,21.0000262 L31.7499672,21.0000262 L31.7499672,18.9375311 C31.7499672,17.7917003 31.3489267,16.8177447 30.5468451,16.0156631 C29.7447634,15.2135815 28.7708079,14.812541 27.6249771,14.812541 C26.4791462,14.812541 25.5051907,15.2135815 24.703109,16.0156631 C23.9010274,16.8177447 23.4999869,17.7917003 23.4999869,18.9375311 L23.4999869,21.0000262 Z M35.187459,23.0625213 L20.0624951,23.0625213 L20.0624951,32.6874984 L35.187459,32.6874984 L35.187459,23.0625213 Z" id="ïŒ" fill="#FFFFFF" opacity="0.899999976"></path>
                </g>
            </g>
        </g>
    </g>
</svg>