<?xml version="1.0" encoding="UTF-8"?>
<svg width="161px" height="150px" viewBox="0 0 161 150" version="1.1" xmlns="http://www.w3.org/2000/svg" xmlns:xlink="http://www.w3.org/1999/xlink">
    <!-- Generator: Sketch 47.1 (45422) - http://www.bohemiancoding.com/sketch -->
    <title>mortarboard</title>
    <desc>Created with Sketch.</desc>
    <defs>
        <linearGradient x1="0.00575871005%" y1="50.0037415%" x2="99.9884826%" y2="50.0037415%" id="linearGradient-1">
            <stop stop-color="#003F7D" offset="0%"></stop>
            <stop stop-color="#00A1AE" offset="100%"></stop>
        </linearGradient>
    </defs>
    <g id="Page-1" stroke="none" stroke-width="1" fill="none" fill-rule="evenodd">
        <g id="Home" transform="translate(-362.000000, -2842.000000)" fill-rule="nonzero" fill="url(#linearGradient-1)">
            <g id="mortarboard" transform="translate(362.000000, 2842.000000)">
                <path d="M113.116632,133.99205 C111.681276,133.62772 110.227406,134.506067 109.871234,135.938912 L107.193515,146.650105 C106.832008,148.087971 107.707531,149.539331 109.142887,149.898326 C109.359728,149.954498 109.579393,149.978661 109.793724,149.978661 C110.99341,149.978661 112.083264,149.167155 112.388598,147.951464 L115.066318,137.240272 C115.425,135.804916 114.551987,134.351046 113.116632,133.99205 Z" id="Shape"></path>
                <path d="M80.334728,80.3554393 C80.6827406,80.3554393 81.0310669,80.2885983 81.3577406,80.1520921 L110.813912,67.9625523 C112.179603,67.3973849 112.827615,65.8308577 112.262762,64.4651674 C111.697594,63.0966527 110.125732,62.4539749 108.762866,63.0138075 L80.334728,74.7800209 L5.35575314,43.7548117 L5.35575314,42.865795 C5.35575314,41.3877615 4.15606695,40.1880753 2.67803347,40.1880753 C1.2,40.1880753 0,41.3877615 0,42.865795 L0,45.5435146 C0,46.6280335 0.65334728,47.6055439 1.65502092,48.017887 L79.3120293,80.1517782 C79.6383891,80.2882845 79.9867155,80.3554393 80.334728,80.3554393 Z" id="Shape"></path>
                <path d="M112.190272,107.789749 C111.536925,106.464226 109.935565,105.917887 108.604707,106.574059 C103.519456,109.088598 95.0253138,112.012657 83.0127615,112.41182 L83.0127615,88.3889121 C83.0127615,86.9108787 81.8130753,85.7111925 80.3350418,85.7111925 C78.8570084,85.7111925 77.6573222,86.9108787 77.6573222,88.3889121 L77.6573222,112.387657 C44.4069038,111.327301 33.6768828,91.1846234 32.134205,87.8319038 L32.134205,69.6442469 C32.134205,68.1662134 30.9345188,66.9665272 29.4564854,66.9665272 C27.9784519,66.9665272 26.7787657,68.1662134 26.7787657,69.6442469 L26.7787657,88.3889121 C26.7787657,88.7290795 26.8430962,89.0664226 26.9689331,89.3849372 C27.4349372,90.5444561 38.8317992,117.84477 80.3353556,117.84477 C94.8411088,117.84477 105.006276,114.326046 110.97772,111.375 C112.305126,110.719142 112.848954,109.115272 112.190272,107.789749 Z" id="Shape"></path>
                <path d="M120.502092,136.589749 C119.021234,136.589749 117.824372,137.789435 117.824372,139.267469 L117.824372,147.300941 C117.824372,148.778975 119.021234,149.978661 120.502092,149.978661 C121.98295,149.978661 123.179812,148.778975 123.179812,147.300941 L123.179812,139.267469 C123.179812,137.789435 121.98295,136.589749 120.502092,136.589749 Z" id="Shape"></path>
                <path d="M157.991736,40.1880753 C156.510879,40.1880753 155.314017,41.3877615 155.314017,42.865795 L155.314017,43.749477 L123.180126,56.9752092 L123.180126,52.1362971 L159.014749,37.3063808 C160.016109,36.8940377 160.66977,35.9165272 160.66977,34.8320084 C160.66977,33.7474895 160.016423,32.7728033 159.017573,32.357636 L81.3577406,0.224058577 C80.701569,-0.0464435146 79.967887,-0.0464435146 79.3120293,0.224058577 L1.65502092,32.3579498 C0.65334728,32.7731172 0,33.7478033 0,34.8323222 C0,35.916841 0.65334728,36.8943515 1.65502092,37.3066946 L79.3120293,69.4405858 C79.6387029,69.5770921 79.9867155,69.6442469 80.3350418,69.6442469 C80.6833682,69.6442469 81.0313808,69.5774059 81.3580544,69.4405858 L109.437866,57.8215481 C110.806381,57.259205 111.454393,55.6926778 110.889226,54.3241632 C110.324059,52.9584728 108.757531,52.3129707 107.391841,52.8753138 L80.334728,64.0688285 L9.68033473,34.8323222 L80.334728,5.5958159 L150.989121,34.8323222 L120.245084,47.5547071 L90.7970711,36.5595188 C90.9524059,36.0025105 91.0462343,35.4294979 91.0462343,34.8323222 C91.0462343,30.3282427 86.341318,26.7988494 80.3350418,26.7988494 C74.3287657,26.7988494 69.6238494,30.3282427 69.6238494,34.8323222 C69.6238494,39.3364017 74.3287657,42.865795 80.3350418,42.865795 C83.0155858,42.865795 85.4067992,42.1346234 87.2651674,40.95659 L117.824372,52.3669456 L117.824372,60.9467573 L117.824372,60.9495816 L117.824372,118.338075 C114.715481,119.449268 112.468619,122.392155 112.468619,125.87887 C112.468619,130.30795 116.073013,133.912343 120.502092,133.912343 C124.931172,133.912343 128.535565,130.30795 128.535565,125.87887 C128.535565,122.392469 126.289017,119.449582 123.179812,118.338075 L123.179812,103.138808 C130.867782,97.3358787 133.623326,89.6077406 133.743828,89.2650628 C133.840167,88.9838912 133.891004,88.6867155 133.891004,88.3895397 L133.891004,69.6448745 C133.891004,68.166841 132.694142,66.9671548 131.213285,66.9671548 C129.732427,66.9671548 128.535565,68.166841 128.535565,69.6448745 L128.535565,87.8943515 C128.072385,89.0297071 126.462866,92.5296025 123.179812,95.9839958 L123.179812,62.7674686 L159.011925,48.0207113 C160.016109,47.6083682 160.669456,46.6283473 160.669456,45.5438285 L160.669456,42.8661088 C160.669456,41.3877615 159.472594,40.1880753 157.991736,40.1880753 Z M80.334728,37.5100418 C77.0651674,37.5100418 74.9789749,35.9246862 74.9789749,34.8323222 C74.9789749,33.7396444 77.0648536,32.1546025 80.334728,32.1546025 C83.6046025,32.1546025 85.6904812,33.7399582 85.6904812,34.8323222 C85.6904812,35.925 83.6042887,37.5100418 80.334728,37.5100418 Z M120.502092,128.556276 C119.024059,128.556276 117.824372,127.354079 117.824372,125.878556 C117.824372,124.403033 119.024059,123.200837 120.502092,123.200837 C121.980126,123.200837 123.179812,124.403033 123.179812,125.878556 C123.179812,127.353766 121.980126,128.556276 120.502092,128.556276 Z" id="Shape"></path>
                <path d="M131.13295,135.938912 C130.774268,134.506381 129.317259,133.630544 127.887552,133.99205 C126.452197,134.350732 125.579184,135.804916 125.93818,137.240272 L128.6159,147.951464 C128.921234,149.167155 130.011088,149.978661 131.210774,149.978661 C131.425105,149.978661 131.644456,149.954498 131.861611,149.898326 C133.296967,149.539644 134.169979,148.087971 133.810983,146.650105 L131.13295,135.938912 Z" id="Shape"></path>
            </g>
        </g>
    </g>
</svg>