<?xml version="1.0" encoding="UTF-8"?>
<svg width="14px" height="8px" viewBox="0 0 14 8" version="1.1" xmlns="http://www.w3.org/2000/svg" xmlns:xlink="http://www.w3.org/1999/xlink">
    <!-- Generator: Sketch 47.1 (45422) - http://www.bohemiancoding.com/sketch -->
    <title></title>
    <desc>Created with Sketch.</desc>
    <defs></defs>
    <g id="Page-1" stroke="none" stroke-width="1" fill="none" fill-rule="evenodd">
        <g id="Home" transform="translate(-1238.000000, -749.000000)" fill="#00A1AE">
            <g id="Group-6" transform="translate(756.000000, 249.000000)">
                <g id="Group-5" transform="translate(369.000000, 318.000000)">
                    <path d="M123.624975,189.437506 C123.520808,189.562506 123.3906,189.593756 123.234351,189.531256 C123.078101,189.468756 122.999976,189.354173 122.999976,189.187507 L122.999976,186.937512 L113.374999,186.937512 C113.270833,186.937512 113.182291,186.901054 113.109375,186.828137 C113.036458,186.755221 113,186.666679 113,186.562513 L113,185.562515 C113,185.479182 113.036458,185.395849 113.109375,185.312516 C113.182291,185.229183 113.270833,185.187516 113.374999,185.187516 L122.999976,185.187516 L122.999976,182.968772 C122.999976,182.802105 123.078101,182.687522 123.234351,182.625022 C123.3906,182.562523 123.520808,182.593772 123.624975,182.718772 L126.749967,185.812515 C126.812467,185.895848 126.843717,185.984389 126.843717,186.078139 C126.843717,186.171889 126.812467,186.26043 126.749967,186.343763 L123.624975,189.437506 Z" id=""></path>
                </g>
            </g>
        </g>
    </g>
</svg>