<?xml version="1.0" encoding="utf-8"?>
<!-- Generator: Adobe Illustrator 17.0.0, SVG Export Plug-In . SVG Version: 6.00 Build 0)  -->
<!DOCTYPE svg PUBLIC "-//W3C//DTD SVG 1.1//EN" "http://www.w3.org/Graphics/SVG/1.1/DTD/svg11.dtd">
<svg version="1.1" id="Layer_1" xmlns="http://www.w3.org/2000/svg" xmlns:xlink="http://www.w3.org/1999/xlink" x="0px" y="0px"
	 width="18px" height="15px" viewBox="0 0 18 15" enable-background="new 0 0 18 15" xml:space="preserve">
<title>Group 26</title>
<desc>Created with Sketch.</desc>
<g id="Page-1">
	<g id="Home" transform="translate(-17.000000, -571.000000)">
		<g id="Group-8" transform="translate(15.000000, 394.000000)">
			<g id="Group-26" transform="translate(2.000000, 177.000000)">
				<path id="_xF3FE_" fill="#00A1AE" d="M17.711,1.367l-2.656,12.422c-0.104,0.443-0.28,0.723-0.527,0.84
					c-0.247,0.117-0.553,0.072-0.918-0.137l-4.023-2.969l-1.953,1.875c-0.13,0.13-0.234,0.221-0.312,0.273
					c-0.13,0.078-0.299,0.117-0.508,0.117l0.312-4.102l7.461-6.758c0.104-0.078,0.137-0.15,0.098-0.215s-0.117-0.091-0.234-0.078
					c-0.117,0.013-0.241,0.059-0.371,0.137l-9.219,5.82l-3.984-1.25C0.432,7.214,0.224,7.018,0.25,6.758
					c0.026-0.26,0.299-0.495,0.82-0.703l15.508-5.977c0.391-0.13,0.703-0.085,0.937,0.137C17.75,0.436,17.815,0.82,17.711,1.367z"/>
			</g>
		</g>
	</g>
</g>
</svg>
