<?xml version="1.0" encoding="UTF-8"?>
<svg width="18px" height="15px" viewBox="0 0 18 15" version="1.1" xmlns="http://www.w3.org/2000/svg" xmlns:xlink="http://www.w3.org/1999/xlink">
    <!-- Generator: Sketch 47.1 (45422) - http://www.bohemiancoding.com/sketch -->
    <title>Group 26</title>
    <desc>Created with Sketch.</desc>
    <defs></defs>
    <g id="Page-1" stroke="none" stroke-width="1" fill="none" fill-rule="evenodd">
        <g id="Home" transform="translate(-17.000000, -571.000000)" fill="#FFFFFF">
            <g id="Group-8" transform="translate(15.000000, 394.000000)">
                <g id="Group-26" transform="translate(2.000000, 177.000000)">
                    <path d="M17.7108959,1.36722 L15.0546522,13.7890654 C14.9504856,14.2317725 14.7747048,14.5117199 14.5273097,14.6289071 C14.2799147,14.7460944 13.9739254,14.7005213 13.6093431,14.4921887 L9.58591524,11.5234458 L7.6327949,13.3984413 C7.50258707,13.5286491 7.39842046,13.6197952 7.32029564,13.6718782 C7.19008782,13.750003 7.02081699,13.7890654 6.81248435,13.7890654 L7.12498361,9.68751267 L14.5859033,2.92971628 C14.6900699,2.85159146 14.7226217,2.77997725 14.6835593,2.71487304 C14.6444969,2.64976883 14.5663721,2.62372762 14.4491849,2.63674823 C14.3319977,2.64976883 14.2082999,2.69534184 14.078092,2.77346665 L4.85936401,8.59376527 L0.87499851,7.34376825 C0.432291431,7.21356043 0.223958197,7.0182484 0.25,6.75783215 C0.276041803,6.49741591 0.549478651,6.26304147 1.07031054,6.05470883 L16.5780861,0.0781605765 C16.9687101,-0.0520472477 17.2812094,-0.00647483704 17.5155838,0.214879001 C17.7499583,0.436232838 17.8150625,0.820346307 17.7108959,1.36722 Z" id="ï¾"></path>
                </g>
            </g>
        </g>
    </g>
</svg>